<svg width="408" height="269" viewBox="0 0 408 269" fill="none" xmlns="http://www.w3.org/2000/svg">
<path d="M314.541 248.469C358.584 209.115 362.386 141.51 323.033 97.4667C283.679 53.4239 216.074 49.6223 172.031 88.9755C127.988 128.329 124.186 195.935 163.54 239.977C202.893 284.02 270.499 287.822 314.541 248.469Z" fill="#DCF1FF"/>
<mask id="mask0_3244_6283" style="mask-type:alpha" maskUnits="userSpaceOnUse" x="136" y="61" width="215" height="215">
<path d="M243.287 275.664C302.35 275.664 350.23 227.784 350.23 168.721C350.23 109.658 302.35 61.7774 243.287 61.7774C184.224 61.7774 136.344 109.658 136.344 168.721C136.344 227.784 184.224 275.664 243.287 275.664Z" fill="#DCF1FF"/>
</mask>
<g mask="url(#mask0_3244_6283)">
<path d="M299.673 239.584H309.415V249.326H299.673V239.584Z" fill="#A8DCFF"/>
<path d="M265.573 190.87H314.287C314.644 190.87 314.996 190.949 315.319 191.1C315.643 191.252 315.929 191.473 316.157 191.747L328.336 206.361C328.905 207.043 328.901 207.389 328.901 207.832V215.227C328.901 219.553 327.02 223.445 324.029 226.119V266.376C324.029 267.022 323.773 267.642 323.316 268.098C322.859 268.555 322.24 268.812 321.594 268.812H289.93V237.148C289.93 236.502 289.673 235.882 289.216 235.426C288.76 234.969 288.14 234.712 287.494 234.712H268.009C267.363 234.712 266.743 234.969 266.286 235.426C265.83 235.882 265.573 236.502 265.573 237.148V268.812H258.266C257.62 268.812 257 268.555 256.544 268.098C256.087 267.642 255.83 267.022 255.83 266.376V226.119C252.839 223.44 250.959 219.553 250.959 215.227V207.92C250.959 207.35 251.159 206.798 251.524 206.361L263.702 191.747C263.931 191.473 264.217 191.252 264.54 191.1C264.863 190.949 265.216 190.87 265.573 190.87ZM255.83 210.355V215.227C255.83 217.811 256.857 220.289 258.684 222.116C260.511 223.943 262.989 224.97 265.573 224.97C268.157 224.97 270.635 223.943 272.462 222.116C274.289 220.289 275.316 217.811 275.316 215.227V210.355H255.83ZM280.187 210.355V215.227C280.187 217.811 281.213 220.289 283.041 222.116C284.868 223.943 287.346 224.97 289.93 224.97C292.514 224.97 294.992 223.943 296.819 222.116C298.646 220.289 299.672 217.811 299.672 215.227V210.355H280.187ZM304.544 210.355V215.227C304.544 217.811 305.57 220.289 307.397 222.116C309.225 223.943 311.703 224.97 314.287 224.97C316.87 224.97 319.349 223.943 321.176 222.116C323.003 220.289 324.029 217.811 324.029 215.227V210.355H304.544ZM266.713 195.741L258.597 205.484H275.998L279.242 195.741H266.713ZM298.727 205.484L295.483 195.741H284.376L281.132 205.484H298.727ZM303.862 205.484H321.267L313.147 195.741H300.618L303.862 205.484ZM294.801 237.148V251.762C294.801 252.408 295.058 253.027 295.514 253.484C295.971 253.941 296.591 254.198 297.237 254.198H311.851C312.497 254.198 313.116 253.941 313.573 253.484C314.03 253.027 314.287 252.408 314.287 251.762V237.148C314.287 236.502 314.03 235.882 313.573 235.426C313.116 234.969 312.497 234.712 311.851 234.712H297.237C296.591 234.712 295.971 234.969 295.514 235.426C295.058 235.882 294.801 236.502 294.801 237.148Z" fill="#A8DCFF"/>
<path d="M285.058 268.812V239.584H270.444V268.812H285.058Z" fill="#A8DCFF"/>
<path d="M173.516 159.428C169.948 159.428 166.527 160.845 164.004 163.368C161.481 165.89 160.064 169.312 160.064 172.879L160.064 271.524C160.064 273.999 162.073 276.008 164.548 276.008H177.999V250.6C177.999 249.41 178.472 248.27 179.313 247.429C180.154 246.588 181.294 246.116 182.483 246.116H227.322C228.511 246.116 229.652 246.588 230.493 247.429C231.333 248.27 231.806 249.41 231.806 250.6V276.008H251C252.189 276.008 253.329 275.536 254.17 274.695C255.011 273.854 255.484 272.714 255.484 271.524L249.741 217.718C249.741 214.15 248.324 210.729 245.801 208.206C243.279 205.684 239.857 204.266 236.29 204.266H231.806V172.879C231.806 169.312 230.389 165.89 227.866 163.368C225.343 160.845 221.922 159.428 218.354 159.428H173.516ZM177.999 186.331C177.999 184.745 178.629 183.225 179.75 182.103C180.872 180.982 182.392 180.352 183.978 180.352C185.564 180.352 187.084 180.982 188.205 182.103C189.327 183.225 189.956 184.745 189.956 186.331C189.956 187.917 189.327 189.437 188.205 190.558C187.084 191.68 185.564 192.309 183.978 192.309C182.392 192.309 180.872 191.68 179.75 190.558C178.629 189.437 177.999 187.917 177.999 186.331ZM183.978 222.202C185.564 222.202 187.084 222.832 188.205 223.953C189.327 225.074 189.956 226.595 189.956 228.18C189.956 229.766 189.327 231.287 188.205 232.408C187.084 233.529 185.564 234.159 183.978 234.159C182.392 234.159 180.872 233.529 179.75 232.408C178.629 231.287 177.999 229.766 177.999 228.18C177.999 226.595 178.629 225.074 179.75 223.953C180.872 222.832 182.392 222.202 183.978 222.202ZM177.999 207.256C177.999 205.67 178.629 204.149 179.75 203.028C180.872 201.907 182.392 201.277 183.978 201.277C185.564 201.277 187.084 201.907 188.205 203.028C189.327 204.149 189.956 205.67 189.956 207.256C189.956 208.841 189.327 210.362 188.205 211.483C187.084 212.604 185.564 213.234 183.978 213.234C182.392 213.234 180.872 212.604 179.75 211.483C178.629 210.362 177.999 208.841 177.999 207.256ZM204.903 180.352C206.488 180.352 208.009 180.982 209.13 182.103C210.251 183.225 210.881 184.745 210.881 186.331C210.881 187.917 210.251 189.437 209.13 190.558C208.009 191.68 206.488 192.309 204.903 192.309C203.317 192.309 201.796 191.68 200.675 190.558C199.554 189.437 198.924 187.917 198.924 186.331C198.924 184.745 199.554 183.225 200.675 182.103C201.796 180.982 203.317 180.352 204.903 180.352ZM198.924 228.18C198.924 226.595 199.554 225.074 200.675 223.953C201.796 222.832 203.317 222.202 204.903 222.202C206.488 222.202 208.009 222.832 209.13 223.953C210.251 225.074 210.881 226.595 210.881 228.18C210.881 229.766 210.251 231.287 209.13 232.408C208.009 233.529 206.488 234.159 204.903 234.159C203.317 234.159 201.796 233.529 200.675 232.408C199.554 231.287 198.924 229.766 198.924 228.18ZM225.827 222.202C227.413 222.202 228.934 222.832 230.055 223.953C231.176 225.074 231.806 226.595 231.806 228.18C231.806 229.766 231.176 231.287 230.055 232.408C228.934 233.529 227.413 234.159 225.827 234.159C224.242 234.159 222.721 233.529 221.6 232.408C220.479 231.287 219.849 229.766 219.849 228.18C219.849 226.595 220.479 225.074 221.6 223.953C222.721 222.832 224.242 222.202 225.827 222.202ZM198.924 207.256C198.924 205.67 199.554 204.149 200.675 203.028C201.796 201.907 203.317 201.277 204.903 201.277C206.488 201.277 208.009 201.907 209.13 203.028C210.251 204.149 210.881 205.67 210.881 207.256C210.881 208.841 210.251 210.362 209.13 211.483C208.009 212.604 206.488 213.234 204.903 213.234C203.317 213.234 201.796 212.604 200.675 211.483C199.554 210.362 198.924 208.841 198.924 207.256Z" fill="#A8DCFF"/>
<path d="M222.838 276.008V255.084H209.387V276.008H222.838Z" fill="#A8DCFF"/>
<path d="M200.419 276.008V255.084H186.967V276.008H200.419Z" fill="#A8DCFF"/>
</g>
<path d="M209.51 67.8239C203.427 69.4299 197.53 71.6689 191.913 74.5042C190.971 81.693 187.31 88.2474 181.682 92.819C176.055 97.3907 168.89 99.6319 161.66 99.0818C157.735 103.998 154.335 109.312 151.517 114.937C158.565 116.901 165.981 117.148 173.145 115.657C180.308 114.165 187.009 110.98 192.688 106.366C198.367 101.753 202.858 95.8459 205.785 89.1401C208.711 82.4343 209.989 75.1249 209.51 67.8239Z" fill="#A8DCFF"/>
<path d="M159.945 107.715C180.349 109.827 198.603 94.998 200.715 74.5938C202.827 54.1895 187.998 35.9364 167.594 33.8243C147.19 31.7122 128.936 46.5409 126.824 66.9452C124.712 87.3494 139.541 105.603 159.945 107.715Z" fill="#3688BE"/>
<path d="M165.352 60.7397C164.54 61.3994 163.365 61.3194 162.747 60.6426L162.689 60.5753L157.327 53.9757C157.005 53.5779 156.852 53.0702 156.899 52.5607C156.946 52.0513 157.189 51.5802 157.578 51.2478C157.967 50.9154 158.471 50.7479 158.981 50.7809C159.492 50.8138 159.969 51.0447 160.312 51.4244L160.376 51.499L165.677 58.0249C166.337 58.837 166.191 60.0588 165.352 60.7397ZM170.314 76.9071L170.194 77.0185C166.306 80.6532 160.309 80.2308 157.064 76.2324L156.964 76.1077L146.226 62.8893C145.912 62.5088 145.761 62.0204 145.803 61.5292C145.846 61.0379 146.08 60.5831 146.454 60.2624C146.829 59.9418 147.314 59.7809 147.806 59.8145C148.298 59.848 148.757 60.0733 149.085 60.4418L149.148 60.5155L159.887 73.734C161.828 76.1233 165.534 76.3574 167.856 73.9909C169.692 72.145 169.728 69.0927 168.111 66.9949L168.023 66.8833L167.553 66.304C166.906 65.5077 167.034 64.3218 167.837 63.6689C168.615 63.0365 169.754 63.1271 170.412 63.8575L170.474 63.9303L170.886 64.4371C173.91 68.1593 173.747 73.6484 170.314 76.9071ZM174.049 82.773C171.948 84.4793 169.505 85.6155 166.864 86.0643C165.817 86.2097 164.857 85.4892 164.72 84.4058L164.709 84.2997L164.722 84.1678C164.684 83.264 165.313 82.4942 166.208 82.2929L166.309 82.2728C168.41 81.8992 170.372 80.9112 172.051 79.4261C176.764 75.1179 177.072 67.8536 173.093 62.9481L172.971 62.8002L164.538 52.4199C164.231 52.0422 164.084 51.5595 164.127 51.0747C164.171 50.5899 164.403 50.1414 164.773 49.8249C165.142 49.5083 165.621 49.3488 166.107 49.3802C166.593 49.4117 167.047 49.6317 167.373 49.9933L167.435 50.0664L175.868 60.4469C181.385 67.2375 180.725 77.2282 174.049 82.773ZM160.419 83.8242C160.173 84.9799 158.998 85.5757 157.868 85.06C155.551 84.1775 153.482 82.6498 151.817 80.6705L151.633 80.4488L143.03 69.8585C142.727 69.4866 142.581 69.0108 142.623 68.5327C142.666 68.0546 142.893 67.612 143.258 67.2996C143.622 66.9871 144.094 66.8295 144.573 66.8603C145.052 66.8911 145.5 67.108 145.822 67.4646L145.885 67.5389L154.489 78.1293C155.775 79.7125 157.359 80.9338 159.255 81.6632C160.139 82.0208 160.639 82.9286 160.419 83.8242ZM185.856 75.9264C185.63 76.8025 184.763 77.308 183.887 77.1446L183.793 77.1246L183.281 76.9431C182.448 76.6644 182.068 75.8976 182.229 75.0498C183.47 69.8072 182.288 64.3338 178.959 60.1131L178.799 59.913L174.737 54.9128C174.431 54.5307 174.285 54.0445 174.331 53.5569C174.376 53.0693 174.61 52.6186 174.982 52.3002C175.354 51.9817 175.835 51.8204 176.324 51.8505C176.813 51.8805 177.271 52.0995 177.601 52.4611L177.664 52.5348L181.726 57.535C185.878 62.6458 187.381 69.4302 185.856 75.9264ZM177.883 88.5134C168.825 95.9901 154.995 94.3966 147.419 85.378L147.191 85.1023L143.416 80.4559C143.101 80.0679 142.95 79.5722 142.995 79.0744C143.04 78.5766 143.278 78.1162 143.658 77.7914L143.693 77.7623C144.056 77.4681 144.517 77.324 144.982 77.3597C145.447 77.3954 145.881 77.6082 146.194 77.9542L146.257 78.0277L150.149 82.8187C156.38 90.488 167.977 91.8757 175.531 85.619C176.849 84.4275 178.123 83.0326 179.076 81.5384C179.624 80.7323 180.716 80.4462 181.535 80.8617C182.471 81.422 182.814 82.5847 182.252 83.5219C181.127 85.3967 179.623 87.0998 177.883 88.5134Z" fill="white"/>
<path d="M164.59 71.4805C165.428 70.7993 165.584 69.5894 164.935 68.7915L153.422 54.6184C153.091 54.222 152.617 53.9718 152.103 53.922C151.589 53.8723 151.076 54.027 150.675 54.3526C150.274 54.6782 150.018 55.1485 149.961 55.6618C149.905 56.1751 150.053 56.69 150.373 57.0951L161.887 71.2679C162.535 72.0658 163.751 72.1614 164.59 71.4805Z" fill="white"/>
<path d="M172.051 79.4261C170.372 80.9112 168.41 81.8992 166.309 82.2728C165.36 82.4372 164.682 83.2308 164.722 84.1678L164.709 84.2997C164.795 85.4417 165.784 86.2146 166.864 86.0643C169.505 85.6155 171.948 84.4793 174.049 82.773C180.725 77.2282 181.385 67.2375 175.868 60.4469L167.435 50.0664C167.122 49.6863 166.671 49.4456 166.181 49.3966C165.69 49.3477 165.201 49.4946 164.818 49.8052C164.436 50.1158 164.192 50.565 164.139 51.0548C164.087 51.5446 164.23 52.0353 164.538 52.4199L172.971 62.8002C177.077 67.7064 176.811 75.0742 172.051 79.4261Z" fill="white"/>
<path d="M160.419 83.8242C160.639 82.9286 160.139 82.0208 159.255 81.6632C157.359 80.9338 155.775 79.7125 154.489 78.1293L145.885 67.5389C145.733 67.3515 145.545 67.1955 145.332 67.0806C145.12 66.9657 144.887 66.8937 144.647 66.8688C144.406 66.844 144.164 66.8667 143.932 66.9356C143.701 67.0046 143.485 67.1185 143.298 67.2708C143.11 67.4231 142.954 67.6108 142.84 67.8233C142.725 68.0358 142.653 68.2688 142.628 68.509C142.603 68.7493 142.626 68.9921 142.695 69.2236C142.764 69.4551 142.878 69.671 143.03 69.8585L151.633 80.4488C153.329 82.5359 155.466 84.1447 157.868 85.06C158.998 85.5757 160.173 84.9799 160.419 83.8242Z" fill="white"/>
<path d="M165.352 60.7397C166.191 60.0588 166.337 58.837 165.677 58.0249L160.376 51.499C160.045 51.1026 159.571 50.8524 159.057 50.8026C158.543 50.7529 158.03 50.9075 157.629 51.2332C157.229 51.5588 156.972 52.0291 156.916 52.5424C156.859 53.0557 157.007 53.5706 157.327 53.9757L162.689 60.5753C163.288 61.3137 164.514 61.4209 165.352 60.7397Z" fill="white"/>
<path d="M170.194 77.0185C173.743 73.7749 173.945 68.2021 170.886 64.4371L170.474 63.9303C169.827 63.1339 168.641 63.0164 167.837 63.6689C167.034 64.3218 166.906 65.5077 167.553 66.304L168.023 66.8833C169.729 68.9831 169.724 72.1123 167.856 73.9909C165.534 76.3574 161.828 76.1233 159.887 73.734L149.148 60.5155C148.992 60.3236 148.8 60.1643 148.583 60.0467C148.365 59.9291 148.127 59.8554 147.881 59.83C147.635 59.8045 147.386 59.8278 147.15 59.8984C146.913 59.969 146.692 60.0855 146.5 60.2414C146.308 60.3973 146.149 60.5894 146.031 60.8068C145.914 61.0242 145.84 61.2627 145.815 61.5086C145.789 61.7545 145.812 62.0029 145.883 62.2398C145.954 62.4767 146.07 62.6974 146.226 62.8893L156.964 76.1077C160.185 80.2216 166.266 80.6908 170.194 77.0185Z" fill="white"/>
<path d="M220.547 216.97L276.269 217.047C275.08 200.189 266.659 186.991 248.449 186.966C230.239 186.941 221.81 200.115 220.547 216.97Z" fill="#3688BE"/>
<path d="M248.525 132.556L248.509 143.956" stroke="#D87860" stroke-width="15.0215" stroke-miterlimit="10"/>
<path d="M247.083 135.579C247.083 135.579 248.963 138.657 255.964 138.744L255.974 130.816" fill="#3A3144"/>
<path d="M259.182 116.408C259.19 110.53 254.432 105.758 248.554 105.75C242.676 105.742 237.905 110.501 237.897 116.378L237.885 125.377C237.876 131.255 242.635 136.026 248.513 136.034C254.39 136.042 259.162 131.284 259.17 125.406L259.182 116.408Z" fill="#D87860"/>
<path d="M261.422 123.268C262.348 121.443 262.089 119.451 260.843 118.819C259.597 118.187 257.836 119.154 256.91 120.98C255.984 122.805 256.244 124.797 257.49 125.429C258.735 126.061 260.496 125.094 261.422 123.268Z" fill="#D87860"/>
<path d="M239.553 125.469C240.8 124.841 241.065 122.849 240.144 121.022C239.223 119.194 237.465 118.222 236.218 118.85C234.97 119.479 234.705 121.47 235.626 123.298C236.547 125.126 238.305 126.098 239.553 125.469Z" fill="#D87860"/>
<path d="M243.627 123.437C244.089 123.437 244.464 123.063 244.464 122.602C244.465 122.14 244.091 121.765 243.629 121.764C243.168 121.764 242.793 122.138 242.792 122.599C242.791 123.061 243.165 123.436 243.627 123.437Z" fill="#3A3144"/>
<path d="M242.944 120.042C243.342 119.901 243.763 119.837 244.185 119.852C244.314 119.852 244.439 119.801 244.531 119.709C244.622 119.618 244.674 119.494 244.674 119.364C244.674 119.234 244.623 119.11 244.531 119.018C244.44 118.926 244.316 118.874 244.186 118.874C243.678 118.866 243.172 118.944 242.691 119.106C242.102 119.304 242.349 120.246 242.944 120.042Z" fill="#3A3144"/>
<path d="M253.44 123.45C253.902 123.451 254.277 123.077 254.278 122.615C254.278 122.153 253.905 121.778 253.443 121.778C252.981 121.777 252.606 122.151 252.606 122.613C252.605 123.075 252.979 123.449 253.44 123.45Z" fill="#3A3144"/>
<path d="M254.389 119.122C253.908 118.959 253.402 118.879 252.894 118.886C252.765 118.886 252.64 118.937 252.549 119.029C252.457 119.121 252.405 119.245 252.405 119.375C252.405 119.504 252.456 119.629 252.548 119.72C252.639 119.812 252.763 119.864 252.893 119.864C253.315 119.85 253.735 119.916 254.133 120.057C254.728 120.263 254.984 119.35 254.389 119.122Z" fill="#3A3144"/>
<path d="M248.131 125.051C248.176 124.982 248.239 124.926 248.314 124.89C248.389 124.855 248.472 124.84 248.555 124.849C248.637 124.858 248.715 124.89 248.78 124.941C248.846 124.992 248.896 125.06 248.925 125.137C249.2 125.669 250.009 125.203 249.733 124.664C249.614 124.452 249.443 124.275 249.236 124.149C249.028 124.022 248.792 123.951 248.55 123.942C248.307 123.934 248.067 123.987 247.851 124.098C247.635 124.209 247.451 124.373 247.317 124.575C246.983 125.078 247.798 125.554 248.131 125.051Z" fill="#3A3144"/>
<path d="M267.616 202.921L229.233 202.868C227.472 202.866 225.773 202.222 224.453 201.056C223.133 199.891 222.284 198.284 222.064 196.538L217.34 158.977C217.069 156.832 217.258 154.654 217.895 152.588C218.532 150.521 219.602 148.615 221.034 146.994C222.465 145.374 224.226 144.077 226.198 143.19C228.17 142.303 230.308 141.847 232.47 141.851L264.554 141.895C266.715 141.899 268.851 142.363 270.819 143.256C272.788 144.149 274.544 145.451 275.97 147.074C277.397 148.698 278.462 150.607 279.094 152.674C279.726 154.741 279.911 156.919 279.637 159.063L274.802 196.61C274.577 198.356 273.723 199.961 272.4 201.122C271.077 202.284 269.376 202.923 267.616 202.921Z" fill="#3A3144"/>
<path d="M241.183 138.242L236.948 141.886L243.007 146.882L249.539 141.903L241.183 138.242Z" fill="#3A3144"/>
<path d="M255.843 138.262L260.068 141.917L253.996 146.897L247.477 141.9L255.843 138.262Z" fill="#3A3144"/>
<path d="M221.407 210.552C220.531 218.43 216.986 251.281 216.071 272.232C225.189 275.127 234.656 276.779 244.216 277.146C244.64 262.443 247.508 232.312 249.575 213.673L221.407 210.552Z" fill="#3688BE"/>
<path d="M275.42 210.619L247.244 213.663C249.259 232.315 252.044 262.461 252.428 277.157C261.991 276.817 271.464 275.191 280.593 272.321C279.736 251.368 276.274 218.507 275.42 210.619Z" fill="#3688BE"/>
<path d="M210.39 232.51L219.42 221.471C219.42 221.471 232.743 231.659 226.917 238.216C221.091 244.772 210.39 232.51 210.39 232.51Z" fill="#D87860"/>
<path d="M231.461 227.833L220.582 223.772C218.928 223.154 218.058 225.759 219.727 226.371L230.584 230.431C232.238 231.049 233.108 228.443 231.439 227.832L231.461 227.833Z" fill="#D87860"/>
<path d="M221.907 243.121C220.26 240.53 218.529 237.997 216.714 235.519C215.936 234.454 214.411 235.83 215.182 236.888C216.891 239.227 218.524 241.616 220.08 244.055C220.785 245.159 222.625 244.24 221.907 243.121Z" fill="#D87860"/>
<path d="M227.098 243.321C225.303 241.57 223.767 239.571 222.535 237.387C221.89 236.237 220.057 237.163 220.701 238.32C222.014 240.67 223.651 242.824 225.565 244.718C226.506 245.644 228.045 244.283 227.097 243.349L227.098 243.321Z" fill="#D87860"/>
<path d="M224.723 237.354C226.291 239.43 228.002 241.395 229.842 243.234C230.776 244.167 232.315 242.798 231.374 241.865C229.534 240.026 227.823 238.061 226.254 235.985C225.462 234.933 223.93 236.309 224.723 237.354Z" fill="#D87860"/>
<path d="M234.473 238.122C230.921 235.793 228.417 232.232 226.006 228.796C225.251 227.711 223.726 229.087 224.474 230.165C226.962 233.754 229.623 237.417 233.341 239.833C233.568 239.965 233.836 240.005 234.091 239.945C234.346 239.885 234.569 239.73 234.714 239.512C234.859 239.293 234.914 239.027 234.87 238.769C234.825 238.511 234.683 238.279 234.473 238.122Z" fill="#D87860"/>
<path d="M310.672 107.983L296.415 108.445C296.415 108.445 295.318 91.7147 304.062 91.7976C312.805 91.8805 310.672 107.983 310.672 107.983Z" fill="#D87860"/>
<path d="M293.223 95.0349L297.324 105.896C297.946 107.526 300.59 106.821 299.968 105.191L295.867 94.3299C295.245 92.6994 292.594 93.4043 293.223 95.0349Z" fill="#D87860"/>
<path d="M311.033 92.4305C310.197 95.292 309.452 98.1772 308.796 101.086C308.511 102.375 310.487 102.931 310.779 101.634C311.435 98.7302 312.181 95.845 313.016 92.9789C313.052 92.8486 313.062 92.7126 313.045 92.5785C313.029 92.4444 312.986 92.3149 312.919 92.1974C312.853 92.0798 312.764 91.9766 312.657 91.8935C312.551 91.8104 312.429 91.7491 312.299 91.7131C312.168 91.6771 312.032 91.6671 311.898 91.6836C311.764 91.7002 311.635 91.743 311.517 91.8097C311.4 91.8763 311.296 91.9654 311.213 92.0719C311.13 92.1785 311.069 92.3003 311.033 92.4305Z" fill="#D87860"/>
<path d="M307.8 88.4088C307.633 90.9162 307.119 93.3883 306.273 95.7545C305.832 97.0009 307.815 97.5422 308.249 96.3028C309.14 93.7587 309.671 91.1026 309.826 88.4116C309.906 87.0938 307.851 87.0909 307.771 88.4088L307.8 88.4088Z" fill="#D87860"/>
<path d="M304.859 94.1439C305.402 91.508 305.766 88.8381 305.947 86.1528C306.041 84.835 303.986 84.8322 303.892 86.15C303.727 88.6526 303.388 91.1405 302.876 93.5956C302.612 94.8848 304.588 95.4402 304.859 94.1439Z" fill="#D87860"/>
<path d="M299.066 86.2922C299.642 90.3885 298.609 94.5747 297.632 98.52C297.312 99.8021 299.295 100.357 299.616 99.0683C300.706 94.7263 301.697 90.2425 301.051 85.7494C300.869 84.4453 298.891 84.9953 299.073 86.2922L299.066 86.2922Z" fill="#D87860"/>
<path d="M227.75 152.785C227.75 152.785 201.4 177.449 203.446 199.382C205.492 221.314 219.231 231.459 219.231 231.459" stroke="#3A3144" stroke-width="17.714" stroke-miterlimit="10"/>
<path d="M258.066 150.29C258.066 150.29 297.933 147.716 301.935 144.03C305.936 140.344 303.76 104.417 303.76 104.417" stroke="#3A3144" stroke-width="17.714" stroke-miterlimit="10"/>
<path d="M249.431 148.407L251.134 146.787L248.509 144.027L245.876 146.78L247.568 148.405L243.613 185.315L248.448 188.617L253.284 185.329L249.431 148.407Z" fill="#3688BE"/>
<path d="M237.868 118.5C241.868 120.5 251.291 115.044 253.917 111.752C253.917 111.752 256.278 115.5 257.368 117.5C259.307 121.059 259.869 117.238 259.893 114.935C259.917 112.632 259.405 109.131 255.778 108.602C255.778 108.602 252.696 103.262 246.615 104.678C240.533 106.094 234.868 111 237.868 118.5Z" fill="#3688BE"/>
<path d="M227.893 213.53C229.724 212.257 231.422 210.802 232.958 209.186C233.391 208.733 232.705 208.045 232.251 208.477C230.777 210.036 229.146 211.44 227.384 212.665C226.881 213.018 227.383 213.862 227.872 213.509L227.893 213.53Z" fill="#3A3144"/>
<path d="M266.53 209.105L272.558 215.689C272.983 216.15 273.664 215.464 273.268 214.981L267.24 208.398C266.822 207.936 266.134 208.623 266.53 209.105Z" fill="#3A3144"/>
<path d="M247.652 128.253C249.058 128.517 250.512 128.229 251.713 127.451C252.231 127.111 251.75 126.267 251.225 126.607C250.25 127.258 249.063 127.51 247.908 127.311C247.299 127.204 247.035 128.139 247.652 128.246L247.652 128.253Z" fill="#3A3144"/>
<path d="M359.171 31.9436C357.903 29.7468 354.011 29.3678 348.865 30.5306C346.592 31.052 344.226 31.0091 341.974 30.4055C339.721 29.802 337.651 28.6562 335.943 27.0683C332.08 23.4812 328.516 21.8571 326.307 23.1325C324.098 24.4079 323.741 28.2959 324.898 33.4453C325.419 35.7181 325.376 38.0841 324.773 40.3365C324.169 42.5889 323.023 44.6593 321.435 46.3669C317.845 50.2236 316.227 53.7841 317.506 55.9993C318.785 58.2145 322.666 58.5751 327.812 57.4123C330.085 56.8909 332.451 56.9338 334.704 57.5374C336.956 58.1409 339.026 59.2867 340.734 60.8747C344.597 64.4617 348.161 66.0858 350.37 64.8104C352.579 63.535 352.942 59.6435 351.779 54.4976C351.258 52.2248 351.301 49.8588 351.904 47.6064C352.508 45.354 353.654 43.2836 355.242 41.576C358.822 37.7009 360.44 34.1404 359.171 31.9436Z" fill="#A8DCFF"/>
<path d="M382.981 119.423C383.058 118.059 381.401 116.754 378.757 115.759C377.579 115.323 376.526 114.606 375.689 113.67C374.853 112.733 374.258 111.606 373.957 110.387C373.283 107.633 372.154 105.856 370.79 105.779C369.425 105.702 368.125 107.355 367.125 110.003C366.69 111.181 365.973 112.234 365.036 113.071C364.1 113.907 362.973 114.502 361.754 114.803C359.003 115.481 357.222 116.606 357.146 117.97C357.069 119.335 358.726 120.64 361.37 121.635C362.547 122.07 363.601 122.787 364.437 123.724C365.274 124.66 365.869 125.787 366.169 127.006C366.848 129.757 367.972 131.538 369.337 131.615C370.702 131.691 372.006 130.034 373.001 127.391C373.437 126.213 374.154 125.159 375.09 124.323C376.027 123.486 377.154 122.891 378.373 122.591C381.128 121.908 382.909 120.784 382.981 119.423Z" fill="#A8DCFF"/>
<path d="M104.257 154.809C102.754 154.406 100.899 155.933 99.1773 158.672C98.4167 159.886 97.3705 160.895 96.1302 161.611C94.8898 162.327 93.493 162.728 92.0616 162.78C88.8263 162.899 86.5699 163.745 86.1763 165.248C85.7826 166.75 87.2968 168.607 90.0395 170.327C91.2531 171.088 92.262 172.134 92.9782 173.374C93.6943 174.615 94.0958 176.011 94.1477 177.443C94.2661 180.678 95.1128 182.935 96.615 183.328C98.1172 183.722 99.9743 182.208 101.694 179.465C102.457 178.253 103.503 177.245 104.743 176.529C105.983 175.813 107.379 175.411 108.81 175.357C112.047 175.242 114.304 174.395 114.696 172.889C115.087 171.384 113.571 169.532 110.832 167.81C109.619 167.049 108.61 166.003 107.894 164.763C107.177 163.522 106.776 162.126 106.724 160.694C106.602 157.461 105.759 155.212 104.257 154.809Z" fill="#A8DCFF"/>
<path d="M376.326 201.187C376.38 200.322 375.338 199.485 373.633 198.842C372.886 198.567 372.218 198.113 371.688 197.52C371.158 196.927 370.782 196.212 370.592 195.44C370.159 193.689 369.444 192.56 368.565 192.5C367.685 192.441 366.868 193.494 366.225 195.199C365.946 195.945 365.49 196.611 364.896 197.142C364.303 197.672 363.589 198.05 362.817 198.244C361.072 198.673 359.942 199.387 359.873 200.267C359.803 201.146 360.866 201.963 362.572 202.606C363.318 202.881 363.986 203.335 364.516 203.929C365.046 204.522 365.422 205.236 365.612 206.009C366.045 207.76 366.76 208.889 367.634 208.953C368.509 209.017 369.336 207.955 369.974 206.254C370.253 205.509 370.709 204.842 371.303 204.312C371.896 203.781 372.61 203.403 373.382 203.209C375.149 202.761 376.278 202.047 376.326 201.187Z" fill="#A8DCFF"/>
</svg>
