<svg width="34" height="32" viewBox="0 0 34 32" fill="none" xmlns="http://www.w3.org/2000/svg">
<path d="M26.7778 12.0192C26.7778 9.53868 25.7476 7.1598 23.9139 5.40583C22.0802 3.65187 19.5932 2.6665 17 2.6665C14.4068 2.6665 11.9198 3.65187 10.0861 5.40583C8.25238 7.1598 7.22222 9.53868 7.22222 12.0192C7.22222 20.3553 3.59053 24.1424 1.87622 25.4657C1.66748 25.6268 1.79337 26.0481 2.05706 26.0481H11.0962C11.2132 26.0481 11.3151 26.1285 11.3482 26.2407C11.6064 27.1147 12.9075 30.6665 17 30.6665C21.0925 30.6665 22.3936 27.1147 22.6518 26.2407C22.6849 26.1285 22.7868 26.0481 22.9038 26.0481H31.9429C32.2066 26.0481 32.3325 25.6268 32.1238 25.4657C30.4095 24.1424 26.7778 20.3553 26.7778 12.0192Z" stroke="#023252" stroke-width="2" stroke-linecap="round" stroke-linejoin="round"/>
</svg>
