<svg width="24" height="20" viewBox="0 0 24 20" fill="none" xmlns="http://www.w3.org/2000/svg">
<path fill-rule="evenodd" clip-rule="evenodd" d="M21.8735 2H13.5191L12.9874 2.22785L12.0001 3.2L11.0128 2.22785L10.4811 2H2.12668L1.36719 2.75949V17.9494L2.12668 18.7089H10.1621L11.4685 20H12.5317L13.8381 18.7089H21.8735L22.633 17.9494V2.75949L21.8735 2ZM11.2406 17.6759L10.9672 17.4177L10.4811 17.1899H2.88617V3.51899H10.1621L11.2862 4.64304L11.2406 17.6759ZM21.114 17.1899H13.5191L12.9874 17.4177L12.7748 17.6152V4.58228L13.8381 3.51899H21.114V17.1899ZM8.96212 6.55696H4.40516V8.07595H8.96212V6.55696ZM8.96212 12.6329H4.40516V14.1519H8.96212V12.6329ZM4.40516 9.59494H8.96212V11.1139H4.40516V9.59494ZM19.595 6.55696H15.0381V8.07595H19.595V6.55696ZM15.0381 9.59494H19.595V11.1139H15.0381V9.59494ZM15.0381 12.6329H19.595V14.1519H15.0381V12.6329Z" fill="white"/>
</svg>
