<svg width="34" height="34" viewBox="0 0 34 34" fill="none" xmlns="http://www.w3.org/2000/svg">
<path d="M8.82976 8.265L9.46017 5.1115C9.5886 4.46896 9.93577 3.89079 10.4426 3.47544C10.9493 3.06009 11.5844 2.83324 12.2397 2.8335H21.7597C22.4149 2.83324 23.05 3.06009 23.5568 3.47544C24.0636 3.89079 24.4107 4.46896 24.5392 5.1115L25.1696 8.265C25.2685 8.75912 25.5057 9.215 25.8536 9.57964C26.2014 9.94428 26.6456 10.2027 27.1345 10.3248C28.2863 10.613 29.3086 11.2778 30.0392 12.2137C30.7697 13.1495 31.1664 14.3028 31.1663 15.49V25.5002C31.1663 27.0031 30.5693 28.4444 29.5066 29.5071C28.4439 30.5698 27.0026 31.1668 25.4997 31.1668H8.49967C6.99678 31.1668 5.55544 30.5698 4.49274 29.5071C3.43003 28.4444 2.83301 27.0031 2.83301 25.5002V15.49C2.8329 14.3028 3.22964 13.1495 3.96017 12.2137C4.6907 11.2778 5.71309 10.613 6.86484 10.3248C7.35375 10.2027 7.79795 9.94428 8.14578 9.57964C8.49362 9.215 8.7308 8.75912 8.82976 8.265V8.265Z" stroke="#A0B3BD" stroke-width="2" stroke-linecap="round" stroke-linejoin="round"/>
<path d="M16.9997 25.5003C20.1293 25.5003 22.6663 22.9633 22.6663 19.8337C22.6663 16.704 20.1293 14.167 16.9997 14.167C13.8701 14.167 11.333 16.704 11.333 19.8337C11.333 22.9633 13.8701 25.5003 16.9997 25.5003Z" stroke="#A0B3BD" stroke-width="2" stroke-linecap="round" stroke-linejoin="round"/>
<path d="M15.583 8.5H18.4163" stroke="#A0B3BD" stroke-width="2" stroke-linecap="round" stroke-linejoin="round"/>
</svg>
