<svg width="32" height="32" viewBox="0 0 32 32" fill="none" xmlns="http://www.w3.org/2000/svg">
<path d="M7.82976 7.265L8.46017 4.1115C8.5886 3.46896 8.93577 2.89079 9.44255 2.47544C9.94934 2.06009 10.5844 1.83324 11.2397 1.8335H20.7597C21.4149 1.83324 22.05 2.06009 22.5568 2.47544C23.0636 2.89079 23.4107 3.46896 23.5392 4.1115L24.1696 7.265C24.2685 7.75912 24.5057 8.215 24.8536 8.57964C25.2014 8.94428 25.6456 9.20269 26.1345 9.32483C27.2863 9.61295 28.3086 10.2778 29.0392 11.2137C29.7697 12.1495 30.1664 13.3028 30.1663 14.49V24.5002C30.1663 26.0031 29.5693 27.4444 28.5066 28.5071C27.4439 29.5698 26.0026 30.1668 24.4997 30.1668H7.49967C5.99678 30.1668 4.55544 29.5698 3.49274 28.5071C2.43003 27.4444 1.83301 26.0031 1.83301 24.5002V14.49C1.8329 13.3028 2.22964 12.1495 2.96017 11.2137C3.6907 10.2778 4.71309 9.61295 5.86484 9.32483C6.35375 9.20269 6.79795 8.94428 7.14578 8.57964C7.49362 8.215 7.7308 7.75912 7.82976 7.265V7.265Z" stroke="#A0B3BD" stroke-width="2" stroke-linecap="round" stroke-linejoin="round"/>
<path d="M15.9997 24.5003C19.1293 24.5003 21.6663 21.9633 21.6663 18.8337C21.6663 15.704 19.1293 13.167 15.9997 13.167C12.8701 13.167 10.333 15.704 10.333 18.8337C10.333 21.9633 12.8701 24.5003 15.9997 24.5003Z" stroke="#A0B3BD" stroke-width="2" stroke-linecap="round" stroke-linejoin="round"/>
<path d="M14.583 7.5H17.4163" stroke="#A0B3BD" stroke-width="2" stroke-linecap="round" stroke-linejoin="round"/>
</svg>
