<svg width="8" height="15" viewBox="0 0 8 15" fill="none" xmlns="http://www.w3.org/2000/svg">
<path d="M1.94219 14.5136C1.70854 14.5141 1.4821 14.4327 1.30219 14.2836C1.20093 14.1997 1.11723 14.0966 1.05588 13.9802C0.994525 13.8639 0.956729 13.7366 0.944653 13.6056C0.932577 13.4746 0.946459 13.3425 0.985504 13.2169C1.02455 13.0913 1.08799 12.9747 1.17219 12.8736L5.65219 7.51361L1.33219 2.14361C1.24912 2.04132 1.18709 1.92363 1.14966 1.79729C1.11223 1.67095 1.10014 1.53846 1.11407 1.40743C1.12801 1.2764 1.16771 1.14942 1.23088 1.03378C1.29406 0.918147 1.37946 0.816135 1.48219 0.733612C1.58566 0.642576 1.70682 0.573908 1.83808 0.531919C1.96935 0.48993 2.10787 0.475527 2.24496 0.489611C2.38206 0.503696 2.51476 0.545966 2.63474 0.613768C2.75472 0.68157 2.8594 0.77344 2.94219 0.883612L7.77219 6.88361C7.91927 7.06255 7.99968 7.28699 7.99968 7.51861C7.99968 7.75024 7.91927 7.97468 7.77219 8.15361L2.77219 14.1536C2.67187 14.2746 2.54444 14.3703 2.40023 14.4328C2.25602 14.4954 2.0991 14.5231 1.94219 14.5136Z" fill="#4B5B66"/>
</svg>
