<svg width="36" height="36" viewBox="0 0 36 36" fill="none" xmlns="http://www.w3.org/2000/svg">
<path d="M24.711 8.11174L27.888 11.2872L24.711 8.11174ZM26.754 5.31424L18.1635 13.9047C17.7196 14.348 17.4169 14.9127 17.2935 15.5277L16.5 19.4997L20.472 18.7047C21.087 18.5817 21.651 18.2802 22.095 17.8362L30.6855 9.24574C30.9436 8.98759 31.1484 8.68113 31.2881 8.34385C31.4278 8.00656 31.4997 7.64506 31.4997 7.27999C31.4997 6.91492 31.4278 6.55342 31.2881 6.21613C31.1484 5.87885 30.9436 5.57239 30.6855 5.31424C30.4274 5.05609 30.1209 4.85132 29.7836 4.71161C29.4463 4.57191 29.0848 4.5 28.7197 4.5C28.3547 4.5 27.9932 4.57191 27.6559 4.71161C27.3186 4.85132 27.0121 5.05609 26.754 5.31424V5.31424Z" stroke="white" stroke-width="3" stroke-linecap="round" stroke-linejoin="round"/>
<path d="M28.5 22.4995V26.9995C28.5 27.7952 28.1839 28.5582 27.6213 29.1208C27.0587 29.6834 26.2956 29.9995 25.5 29.9995H9C8.20435 29.9995 7.44129 29.6834 6.87868 29.1208C6.31607 28.5582 6 27.7952 6 26.9995V10.4995C6 9.70386 6.31607 8.9408 6.87868 8.37819C7.44129 7.81558 8.20435 7.49951 9 7.49951H13.5" stroke="white" stroke-width="3" stroke-linecap="round" stroke-linejoin="round"/>
</svg>
