<svg width="264" height="328" viewBox="0 0 264 328" fill="none" xmlns="http://www.w3.org/2000/svg">
<path d="M128.17 116.534L26.809 175.048C24.3048 176.496 22.2254 178.577 20.7794 181.082C19.3333 183.588 18.5715 186.429 18.5703 189.322V299.401C18.5703 303.771 20.3063 307.962 23.3964 311.052C26.4866 314.142 30.6777 315.878 35.0477 315.878H237.769C239.935 315.878 242.079 315.451 244.079 314.622C246.08 313.793 247.897 312.578 249.427 311.045C250.958 309.513 252.171 307.695 252.998 305.693C253.825 303.692 254.249 301.548 254.247 299.382V189.325C254.246 186.432 253.484 183.591 252.038 181.086C250.592 178.58 248.512 176.499 246.008 175.051L144.647 116.537C142.143 115.089 139.301 114.327 136.409 114.327C133.516 114.326 130.675 115.087 128.17 116.534Z" fill="#1970AA"/>
<path d="M148.102 293.12C188.685 293.12 221.585 278.577 221.585 260.638C221.585 242.699 188.685 228.156 148.102 228.156C107.519 228.156 74.6199 242.699 74.6199 260.638C74.6199 278.577 107.519 293.12 148.102 293.12Z" fill="#075488"/>
<path d="M143.415 182.506C143.415 182.506 112.636 250.532 151.987 293.12" stroke="#24496F" stroke-width="24.8998" stroke-miterlimit="10"/>
<path d="M124.463 228.156L136.835 240.323L124.718 258.634C124.718 258.634 122.437 257.563 122.714 253.246C122.991 248.929 123.187 241.21 117.983 237.089" fill="#51475B"/>
<path d="M124.463 228.156L117.973 237.08C121.052 239.517 122.237 243.208 122.642 246.728L131.646 235.234L124.463 228.156Z" fill="#3A3144"/>
<path d="M98.5454 82.4084L110.136 84.805C110.136 84.805 111.692 69.6722 105.156 69.7095C97.8575 69.75 98.5454 82.4084 98.5454 82.4084Z" fill="#D87860"/>
<path d="M110.637 69.4884C110.301 70.9637 109.909 72.4265 109.451 73.8676C109.231 74.5648 108.995 75.2578 108.742 75.9467C108.515 76.5692 108.334 77.3505 107.923 77.8827L108.371 77.4376L108.228 77.531L108.851 77.3629H108.686L109.308 77.5341C109.483 77.6462 109.1 77.1855 109.075 77.145C108.984 77.0034 108.913 76.8493 108.866 76.6875C108.802 76.3102 108.855 75.9224 109.019 75.5764C109.15 75.2374 109.356 74.9326 109.622 74.6846C109.888 74.4367 110.206 74.2521 110.553 74.1446C112.109 73.7587 111.45 71.3434 109.893 71.7418C108.275 72.1433 107.021 73.5813 106.538 75.1406C106.28 75.9518 106.288 76.824 106.56 77.6306C106.834 78.3776 107.425 79.4358 108.2 79.7408C110.236 80.5376 110.924 77.2135 111.378 75.9125C112.036 74.0227 112.587 72.0972 113.028 70.1451C113.382 68.5889 110.983 67.9197 110.628 69.4821L110.637 69.4884Z" fill="#D87860"/>
<path d="M106.149 65.536C105.857 68.1977 106.127 70.8911 106.943 73.4416C107.307 74.5839 109.122 74.0953 108.742 72.9468C107.98 70.5553 107.733 68.0297 108.017 65.536C108.148 64.3408 106.28 64.3501 106.149 65.536Z" fill="#D87860"/>
<path d="M103.077 64.7891C102.853 67.4423 103.009 70.1139 103.541 72.7228C103.78 73.8994 105.579 73.4014 105.343 72.2248C104.858 69.783 104.723 67.2844 104.945 64.8047C105.047 63.6095 103.18 63.6157 103.077 64.8047V64.7891Z" fill="#D87860"/>
<path d="M99.8961 65.3214C99.7096 68.2303 99.9955 71.1503 100.743 73.9678C101.054 75.1288 102.85 74.637 102.542 73.4698C101.843 70.8136 101.581 68.0617 101.764 65.3214C101.841 64.1231 99.9739 64.1262 99.8961 65.3214Z" fill="#D87860"/>
<path d="M97.3938 69.6789C97.5027 72.5548 98.2279 75.4027 98.95 78.1759C99.2613 79.34 101.051 78.8451 100.749 77.6811C100.074 75.0666 99.3671 72.3899 99.2644 69.6789C99.2177 68.4806 97.3502 68.4744 97.3969 69.6789H97.3938Z" fill="#D87860"/>
<path d="M108.325 72.4828C107.649 73.1691 107.07 73.9439 106.604 74.786C106.407 75.1377 106.946 75.4521 107.139 75.0972C107.58 74.3005 108.128 73.5675 108.767 72.9185C109.047 72.6322 108.608 72.1902 108.325 72.4765V72.4828Z" fill="#3A3144"/>
<path d="M174.412 79.1191L163.241 83.0283C163.241 83.0283 159.684 68.2379 166.176 67.4099C173.419 66.498 174.412 79.1191 174.412 79.1191Z" fill="#D87860"/>
<path d="M158.37 68.7318C159.048 70.5717 159.821 72.3752 160.686 74.1351C161.119 75.0097 161.567 75.8781 162.058 76.7216C162.55 77.565 163.303 78.2778 164.321 77.8327C165.078 77.5028 165.52 76.485 165.744 75.738C165.978 74.899 165.923 74.0055 165.588 73.2014C165.266 72.3594 164.722 71.6206 164.013 71.0637C163.304 70.5067 162.458 70.1526 161.564 70.0391C160.894 69.9613 160.319 70.6616 160.319 71.2841C160.319 72.0217 160.891 72.4513 161.564 72.5291C162.911 72.6878 164.054 74.8945 162.961 75.8158L163.842 75.4517L163.677 75.4704L164.299 75.6415C164.396 75.8003 164.365 75.7411 164.203 75.4641C164.107 75.2929 164.01 75.1249 163.917 74.9537C163.727 74.6113 163.54 74.2689 163.36 73.9203C163.042 73.3165 162.737 72.7054 162.444 72.0871C161.822 70.7736 161.259 69.4342 160.754 68.0689C160.197 66.5811 157.791 67.2254 158.352 68.7318H158.37Z" fill="#D87860"/>
<path d="M162.818 63.7709C163.406 66.1252 163.494 68.5766 163.076 70.967C162.868 72.1435 164.667 72.6477 164.878 71.465C165.368 68.7473 165.279 65.9569 164.617 63.276C164.327 62.1089 162.525 62.6037 162.818 63.7709Z" fill="#D87860"/>
<path d="M165.763 62.6285C166.301 65.0595 166.488 67.5552 166.317 70.0393C166.239 71.2376 168.106 71.2345 168.184 70.0393C168.353 67.3869 168.143 64.7239 167.562 62.1305C167.3 60.9571 165.501 61.4551 165.759 62.6285H165.763Z" fill="#D87860"/>
<path d="M168.987 62.7343C169.518 65.4293 169.61 68.1924 169.261 70.9169C169.111 72.1059 170.979 72.0966 171.128 70.9169C171.483 68.024 171.368 65.0927 170.789 62.2363C170.552 61.0597 168.753 61.5577 168.987 62.7343Z" fill="#D87860"/>
<path d="M172.012 66.4722C172.274 69.2547 171.931 72.0746 171.595 74.851C171.452 76.0399 173.32 76.0306 173.463 74.851C173.799 72.0871 174.141 69.2485 173.88 66.4722C173.765 65.2863 171.897 65.2739 172.012 66.4722Z" fill="#D87860"/>
<path d="M162.995 71.0452C163.716 71.5999 164.358 72.2502 164.903 72.978C165.14 73.2893 165.678 72.978 165.439 72.6668C164.868 71.8918 164.193 71.1986 163.434 70.6063C163.123 70.3667 162.678 70.8024 162.995 71.0483V71.0452Z" fill="#3A3144"/>
<path d="M167.602 79.1621C167.602 79.1621 181.798 126.011 148.74 142.233" stroke="#FFD3C8" stroke-width="15.5624" stroke-miterlimit="10"/>
<path d="M130.619 109.639C130.619 109.639 125.017 111.746 124.674 121.547C124.332 131.349 122.714 137.029 122.714 137.029H126.567L126.856 134.256L127.448 137.029H130.871L130.439 126.213" fill="#3A3144"/>
<path d="M132.437 191.612C142.024 191.612 149.795 183.307 149.795 173.062C149.795 162.817 142.024 154.512 132.437 154.512C122.85 154.512 115.079 162.817 115.079 173.062C115.079 183.307 122.85 191.612 132.437 191.612Z" fill="#385A7D"/>
<path d="M135.238 125.924C135.073 129.304 135.282 134.95 134.955 138.315" stroke="#D87860" stroke-width="9.95992" stroke-miterlimit="10"/>
<path d="M132.789 129.323C133.187 129.945 138.566 130.994 140.109 131.053L140.224 124.558C140.224 124.558 132.235 128.461 132.789 129.323Z" fill="#3A3144"/>
<path d="M134.389 130.017C132.553 130.017 130.792 129.288 129.494 127.99C128.196 126.691 127.467 124.931 127.467 123.095V116.157C127.467 115.248 127.646 114.348 127.993 113.508C128.341 112.668 128.851 111.905 129.494 111.263C130.137 110.62 130.9 110.11 131.74 109.762C132.579 109.414 133.48 109.235 134.389 109.235H135.515C136.424 109.235 137.325 109.414 138.164 109.762C139.004 110.11 139.767 110.62 140.41 111.263C141.053 111.905 141.563 112.668 141.911 113.508C142.258 114.348 142.438 115.248 142.438 116.157V121.968C142.437 124.103 141.589 126.15 140.08 127.66C138.571 129.169 136.523 130.017 134.389 130.017Z" fill="#D87860"/>
<path d="M134.983 122.12C134.878 121.99 134.743 121.887 134.589 121.821C134.435 121.754 134.267 121.726 134.1 121.74C133.932 121.753 133.771 121.806 133.629 121.896C133.488 121.986 133.37 122.109 133.287 122.254C133.072 122.594 133.598 122.905 133.822 122.566C133.858 122.502 133.911 122.449 133.974 122.413C134.037 122.376 134.109 122.357 134.182 122.357C134.255 122.357 134.326 122.376 134.389 122.413C134.453 122.449 134.505 122.502 134.541 122.566C134.79 122.877 135.229 122.438 134.983 122.127V122.12Z" fill="#3A3144"/>
<path d="M136.29 123.179C135.562 123.749 134.669 124.066 133.744 124.082C133.662 124.082 133.583 124.115 133.524 124.173C133.466 124.231 133.433 124.311 133.433 124.393C133.433 124.476 133.466 124.555 133.524 124.613C133.583 124.672 133.662 124.704 133.744 124.704C134.779 124.691 135.782 124.345 136.605 123.718C136.916 123.478 136.605 122.94 136.293 123.179H136.29Z" fill="#3A3144"/>
<path d="M137.436 121.075C137.735 121.075 137.977 120.816 137.977 120.496C137.977 120.176 137.735 119.917 137.436 119.917C137.137 119.917 136.894 120.176 136.894 120.496C136.894 120.816 137.137 121.075 137.436 121.075Z" fill="#3A3144"/>
<path d="M130.856 121.075C131.155 121.075 131.398 120.816 131.398 120.496C131.398 120.176 131.155 119.917 130.856 119.917C130.557 119.917 130.314 120.176 130.314 120.496C130.314 120.816 130.557 121.075 130.856 121.075Z" fill="#3A3144"/>
<path d="M138.276 117.876C137.935 117.818 137.588 117.802 137.243 117.829C136.848 117.863 136.845 118.486 137.243 118.451C137.532 118.424 137.824 118.432 138.111 118.476C138.151 118.487 138.192 118.49 138.233 118.485C138.273 118.48 138.312 118.467 138.348 118.447C138.383 118.426 138.415 118.399 138.44 118.367C138.465 118.335 138.483 118.298 138.494 118.258C138.505 118.219 138.508 118.178 138.503 118.137C138.498 118.097 138.485 118.057 138.465 118.022C138.444 117.986 138.417 117.955 138.385 117.93C138.353 117.905 138.316 117.886 138.276 117.876Z" fill="#3A3144"/>
<path d="M131.566 117.751C131.23 117.73 130.893 117.759 130.567 117.838C130.178 117.928 130.342 118.526 130.735 118.435C131.007 118.374 131.287 118.353 131.566 118.373C131.964 118.398 131.964 117.776 131.566 117.751Z" fill="#3A3144"/>
<path d="M125.515 118.377C125.219 120.023 126.377 122.604 128.269 122.604L128.783 117.994C128.817 117.683 127.448 117.079 127.227 117.06C126.209 116.92 125.677 117.543 125.515 118.377Z" fill="#D87860"/>
<path d="M144.383 118.377C144.694 120.023 143.521 122.604 141.628 122.604L141.118 117.994C141.084 117.683 142.45 117.079 142.674 117.06C143.698 116.92 144.233 117.543 144.383 118.377Z" fill="#D87860"/>
<path d="M153.474 133.671L118.487 134.107C117.601 134.117 116.75 134.456 116.099 135.057C115.448 135.659 115.044 136.48 114.964 137.363L112.302 166.455C112.39 167.446 112.84 168.37 113.566 169.05C114.291 169.73 115.242 170.12 116.237 170.143L148.417 171.423C149.413 171.477 150.394 171.165 151.176 170.545C151.958 169.925 152.485 169.04 152.659 168.058L157.368 138.216C157.735 135.906 155.921 133.771 153.474 133.671Z" fill="#FFD3C8"/>
<path d="M138.534 112.693C138.534 112.693 133.078 117.919 127.572 117.184C127.541 117.179 127.512 117.167 127.487 117.148C127.462 117.129 127.442 117.104 127.429 117.075C126.925 115.911 126.84 114.608 127.189 113.388C127.537 112.168 128.297 111.106 129.34 110.383C133.125 107.545 139.611 109.11 141.118 111.398C141.118 111.398 143.097 117.934 142.151 121.065C142.151 121.075 138.422 116.141 138.534 112.693Z" fill="#3A3144"/>
<path d="M138.534 112.693C138.534 112.693 138.846 115.581 141.118 119.917C143.39 124.253 139.932 127.813 139.932 127.813L140.225 137.039H146.449V134.661L147.125 137.026H151.993C151.993 137.026 148.155 130.926 147.526 124.558C146.443 113.639 142.185 111.98 140.225 110.511" fill="#3A3144"/>
<path d="M103.921 81.0518C103.921 81.0518 99.6629 121.853 119.436 143.146" stroke="#FFD3C8" stroke-width="15.5624" stroke-miterlimit="10"/>
<path d="M122.714 236.625C122.714 236.625 76.3379 195.628 84.4521 174.584C91.0288 157.525 121.914 174.874 132.711 181.597C134.291 182.598 136.088 183.203 137.952 183.361C139.815 183.519 141.689 183.226 143.415 182.506C145.192 181.746 141.118 177.725 140.225 171.105" stroke="#385A7D" stroke-width="24.8998" stroke-miterlimit="10"/>
<path d="M246.008 211.2L144.647 269.714C142.143 271.161 139.301 271.923 136.409 271.923C133.516 271.923 130.674 271.161 128.17 269.714L26.809 211.2C24.3041 209.754 22.2239 207.675 20.7776 205.17C19.3314 202.666 18.5701 199.824 18.5703 196.932V299.398C18.5679 301.563 18.9923 303.708 19.8192 305.709C20.6462 307.711 21.8595 309.529 23.3898 311.061C24.9202 312.593 26.7374 313.809 28.7378 314.638C30.7381 315.467 32.8823 315.894 35.0478 315.894H237.769C239.935 315.894 242.079 315.467 244.079 314.638C246.08 313.809 247.897 312.593 249.427 311.061C250.958 309.529 252.171 307.711 252.998 305.709C253.825 303.708 254.249 301.563 254.247 299.398V196.929C254.247 199.822 253.486 202.663 252.039 205.168C250.593 207.673 248.513 209.754 246.008 211.2Z" fill="#3688BE"/>
<path d="M68.9894 114.629L83.9292 146.902C84.0973 147.263 84.6357 146.949 84.4677 146.591L69.5278 114.318C69.3597 113.954 68.8244 114.268 68.9925 114.629H68.9894Z" fill="#3A3144"/>
<path d="M86.0363 119.805C86.7835 122.351 87.6634 124.856 88.6725 127.309C88.8219 127.677 89.4257 127.515 89.2732 127.144C88.2632 124.691 87.3833 122.186 86.637 119.64C86.6151 119.56 86.5625 119.493 86.4907 119.452C86.4189 119.411 86.3338 119.4 86.2541 119.422C86.1745 119.444 86.1068 119.497 86.0659 119.569C86.0251 119.64 86.0144 119.725 86.0363 119.805Z" fill="#3A3144"/>
<path d="M89.8989 131.769C90.0329 132.647 90.3061 133.498 90.7081 134.29C90.8886 134.648 91.424 134.334 91.2466 133.979C90.8729 133.233 90.6207 132.433 90.4996 131.607C90.4404 131.212 89.8397 131.38 89.8989 131.772V131.769Z" fill="#3A3144"/>
<path d="M62.5932 141.844C65.4755 145.179 68.5962 148.299 71.9307 151.181C72.2419 151.443 72.6745 151.004 72.3726 150.743C69.039 147.859 65.9184 144.739 63.0352 141.405C62.7738 141.094 62.3349 141.542 62.5964 141.844H62.5932Z" fill="#3A3144"/>
<path d="M191.54 131.548L182.009 148.383C181.972 148.455 181.964 148.537 181.986 148.614C182.009 148.692 182.06 148.757 182.129 148.797C182.199 148.837 182.281 148.849 182.359 148.83C182.437 148.811 182.505 148.762 182.548 148.695L192.078 131.859C192.115 131.788 192.124 131.705 192.101 131.628C192.079 131.551 192.028 131.486 191.958 131.446C191.889 131.405 191.806 131.394 191.728 131.413C191.65 131.432 191.583 131.48 191.54 131.548Z" fill="#3A3144"/>
<path d="M208.531 136.581L194.525 155.234C194.285 155.545 194.836 155.857 195.063 155.545L209.069 136.892C209.309 136.581 208.758 136.27 208.531 136.581Z" fill="#3A3144"/>
<path d="M188.82 163.482L189.831 162.063C190.065 161.736 189.52 161.425 189.296 161.752L188.281 163.171C188.048 163.498 188.592 163.809 188.82 163.482Z" fill="#3A3144"/>
<path d="M214.289 127.412L212.87 129.239C212.624 129.55 213.063 129.995 213.308 129.678L214.728 127.854C214.971 127.543 214.535 127.098 214.289 127.412Z" fill="#3A3144"/>
<path d="M221.379 150.105C214.285 157.637 207.067 165.052 199.726 172.35C197.636 174.425 195.539 176.488 193.435 178.541C193.149 178.821 193.588 179.26 193.874 178.979C201.282 171.756 208.57 164.411 215.739 156.943C217.775 154.82 219.802 152.688 221.821 150.547C222.095 150.254 221.656 149.816 221.379 150.105Z" fill="#3A3144"/>
<path d="M43.5075 148.978L62.9792 164.391C63.2904 164.637 63.7324 164.198 63.418 163.949L43.9495 148.536C43.6383 148.29 43.1963 148.729 43.5075 148.978Z" fill="#3A3144"/>
<path d="M121.942 245.465C122.305 245.123 122.734 244.859 123.203 244.689C123.672 244.519 124.171 244.448 124.668 244.478C124.868 244.478 124.868 244.167 124.668 244.167C124.129 244.136 123.59 244.216 123.083 244.402C122.576 244.588 122.112 244.875 121.721 245.247C121.575 245.384 121.796 245.602 121.942 245.465Z" fill="#FFECE5"/>
<path d="M122.402 247.609C123.204 247.087 124.12 246.767 125.073 246.676C125.272 246.654 125.275 246.343 125.073 246.364C124.067 246.456 123.097 246.788 122.247 247.332C122.079 247.441 122.247 247.712 122.402 247.603V247.609Z" fill="#FFECE5"/>
<path d="M122.714 249.862C123.579 249.492 124.485 249.225 125.412 249.066C125.608 249.031 125.524 248.729 125.328 248.754C124.375 248.922 123.446 249.2 122.558 249.585C122.375 249.663 122.533 249.934 122.714 249.853V249.862Z" fill="#FFECE5"/>
<path d="M114.858 140.263C114.179 143.791 113.635 147.328 113.224 150.874C113.177 151.272 113.799 151.269 113.846 150.874C114.261 147.373 114.799 143.891 115.458 140.428C115.533 140.036 114.936 139.871 114.858 140.263Z" fill="#3A3144"/>
<path d="M152.03 149.934C153.454 148.785 155.044 147.858 156.746 147.185C157.113 147.039 156.954 146.435 156.581 146.585C154.785 147.299 153.106 148.279 151.601 149.492C151.29 149.744 151.732 150.183 152.043 149.934H152.03Z" fill="#3A3144"/>
<path d="M135.301 60.3863C151.976 60.3863 165.494 46.8684 165.494 30.1931C165.494 13.5179 151.976 0 135.301 0C118.626 0 105.108 13.5179 105.108 30.1931C105.108 46.8684 118.626 60.3863 135.301 60.3863Z" fill="#3688BE"/>
<path d="M134.662 22.2407C134.057 22.8458 133.094 22.8797 132.534 22.3812L132.481 22.3313L127.564 17.414C127.269 17.1174 127.101 16.7174 127.096 16.299C127.091 15.8806 127.25 15.4768 127.538 15.1737C127.827 14.8705 128.222 14.6918 128.64 14.6757C129.058 14.6595 129.466 14.8071 129.777 15.0871L129.835 15.1425L134.698 20.0049C135.303 20.61 135.287 21.6162 134.662 22.2407ZM140.06 34.9751L139.972 35.0759C137.114 38.3601 132.201 38.5214 129.224 35.542L129.132 35.449L119.284 25.6C118.996 25.3168 118.832 24.9323 118.825 24.5291C118.819 24.1259 118.97 23.7362 119.248 23.4438C119.526 23.1514 119.907 22.9797 120.31 22.9655C120.713 22.9514 121.106 23.096 121.403 23.3682L121.461 23.4229L131.31 33.2719C133.09 35.0521 136.125 34.9304 137.814 32.8098C139.152 31.1535 138.925 28.6674 137.433 27.097L137.352 27.0136L136.92 26.582C136.327 25.9887 136.331 25.0132 136.93 24.4144C137.51 23.8344 138.443 23.8123 139.041 24.3509L139.097 24.4049L139.475 24.7826C142.249 27.5559 142.578 32.0351 140.06 34.9751ZM143.592 39.4325C142.027 40.9976 140.135 42.1276 138.024 42.715C137.185 42.9215 136.343 42.4162 136.14 41.5464L136.123 41.461L136.122 41.3526C136.015 40.6206 136.462 39.9414 137.173 39.7022L137.253 39.6774C138.931 39.1965 140.444 38.2276 141.685 36.878C145.156 32.9765 144.795 27.041 141.145 23.3854L141.033 23.2754L133.299 15.5411C133.017 15.2597 132.857 14.8794 132.852 14.4814C132.846 14.0833 132.997 13.6989 133.271 13.4103C133.545 13.1216 133.921 12.9515 134.319 12.9362C134.717 12.9209 135.105 13.0616 135.401 13.3283L135.457 13.3825L143.192 21.117C148.251 26.1766 148.556 34.3596 143.592 39.4325ZM132.592 41.4355C132.489 42.3963 131.584 42.98 130.621 42.6556C128.662 42.1327 126.85 41.0642 125.329 39.5943L125.161 39.4294L117.27 31.5386C116.992 31.2616 116.833 30.8868 116.828 30.4943C116.822 30.1018 116.97 29.7226 117.24 29.4377C117.51 29.1528 117.881 28.9848 118.273 28.9696C118.666 28.9543 119.048 29.093 119.34 29.3561L119.398 29.4112L127.289 37.302C128.468 38.4817 129.86 39.3418 131.464 39.7754C132.212 39.992 132.696 40.6883 132.592 41.4355ZM152.621 32.8685C152.51 33.6003 151.847 34.0845 151.121 34.0254L151.043 34.017L150.612 33.9124C149.91 33.7559 149.536 33.1641 149.596 32.4608C150.164 28.0915 148.741 23.7384 145.678 20.5851L145.531 20.4358L141.806 16.7102C141.524 16.4252 141.365 16.0419 141.361 15.6414C141.357 15.2409 141.509 14.8546 141.785 14.5642C142.061 14.2738 142.439 14.1021 142.839 14.0854C143.239 14.0686 143.63 14.2082 143.929 14.4746L143.987 14.5293L147.712 18.2549C151.52 22.0629 153.314 27.4554 152.621 32.8685ZM147.194 43.7795C140.456 50.6245 129.07 50.4929 122.148 43.7942L121.939 43.5891L118.477 40.1271C118.188 39.838 118.023 39.4474 118.018 39.0387C118.013 38.6299 118.168 38.2353 118.45 37.9391L118.476 37.9125C118.746 37.6426 119.109 37.4866 119.49 37.4765C119.872 37.4663 120.242 37.6029 120.526 37.858L120.584 37.9125L124.153 41.4823C129.868 47.1966 139.419 47.3488 145.037 41.623C146.01 40.5427 146.928 39.3006 147.577 38.0049C147.956 37.3029 148.82 36.9783 149.521 37.2473C150.33 37.6243 150.707 38.5413 150.328 39.351C149.571 40.9709 148.49 42.4831 147.194 43.7795Z" fill="white"/>
<path d="M134.946 31.0426C135.571 30.4178 135.595 29.4204 135.001 28.826L124.441 18.2657C124.138 17.9711 123.732 17.8074 123.309 17.8102C122.887 17.813 122.483 17.982 122.184 18.2807C121.886 18.5793 121.717 18.9835 121.714 19.4059C121.711 19.8282 121.875 20.2346 122.169 20.5372L132.729 31.0972C133.324 31.6917 134.321 31.6671 134.946 31.0426Z" fill="white"/>
<path d="M141.685 36.878C140.444 38.2276 138.931 39.1965 137.253 39.6774C136.496 39.8911 136.011 40.5937 136.122 41.3526L136.123 41.461C136.289 42.3828 137.158 42.9282 138.024 42.715C140.135 42.1276 142.027 40.9976 143.592 39.4325C148.556 34.3596 148.251 26.1766 143.192 21.117L135.457 13.3825C135.17 13.0997 134.783 12.9419 134.38 12.9433C133.978 12.9448 133.592 13.1055 133.307 13.3904C133.022 13.6753 132.861 14.0613 132.86 14.4641C132.858 14.867 133.016 15.2542 133.299 15.5411L141.033 23.2754C144.787 26.9208 145.191 32.9369 141.685 36.878Z" fill="white"/>
<path d="M132.592 41.4355C132.696 40.6883 132.212 39.992 131.464 39.7754C129.86 39.3418 128.468 38.4817 127.289 37.302L119.398 29.4112C119.258 29.2715 119.092 29.1605 118.91 29.0849C118.727 29.0093 118.531 28.9704 118.334 28.9704C118.136 28.9704 117.941 29.0093 117.758 29.0849C117.576 29.1605 117.41 29.2713 117.27 29.411C117.131 29.5507 117.02 29.7165 116.944 29.899C116.869 30.0815 116.83 30.2771 116.83 30.4747C116.83 30.6722 116.869 30.8678 116.944 31.0503C117.02 31.2329 117.131 31.3989 117.27 31.5386L125.161 39.4294C126.716 40.9845 128.59 42.1133 130.621 42.6556C131.584 42.98 132.489 42.3963 132.592 41.4355Z" fill="white"/>
<path d="M134.662 22.2407C135.287 21.6162 135.303 20.61 134.698 20.0049L129.835 15.1425C129.533 14.8478 129.126 14.6842 128.704 14.687C128.282 14.6898 127.877 14.8588 127.579 15.1574C127.28 15.4561 127.111 15.8603 127.108 16.2826C127.105 16.7049 127.269 17.1114 127.564 17.414L132.481 22.3313C133.031 22.8815 134.037 22.8654 134.662 22.2407Z" fill="white"/>
<path d="M139.972 35.0759C142.585 32.1383 142.28 27.5878 139.475 24.7826L139.097 24.4049C138.504 23.8116 137.529 23.8159 136.93 24.4144C136.331 25.0132 136.327 25.9887 136.92 26.582L137.352 27.0136C138.917 28.5782 139.176 31.1241 137.814 32.8098C136.125 34.9304 133.09 35.0521 131.31 33.2719L121.461 23.4229C121.318 23.2799 121.148 23.1665 120.961 23.0891C120.774 23.0117 120.574 22.9719 120.372 22.9719C120.17 22.9719 119.97 23.0117 119.783 23.0891C119.596 23.1665 119.427 23.2799 119.284 23.4229C119.141 23.5658 119.027 23.7355 118.95 23.9223C118.872 24.1091 118.833 24.3092 118.833 24.5114C118.833 24.7136 118.872 24.9138 118.95 25.1006C119.027 25.2873 119.141 25.457 119.284 25.6L129.132 35.449C132.099 38.5243 137.085 38.394 139.972 35.0759Z" fill="white"/>
</svg>
