<svg width="75" height="74" viewBox="0 0 75 74" fill="none" xmlns="http://www.w3.org/2000/svg">
<g clip-path="url(#clip0_475_7113)">
<path d="M49.1302 38.4393L64.764 24.8567V51.867L49.1302 38.4393ZM28.985 40.7395L34.475 45.5052C35.3366 46.2372 36.46 46.6794 37.6877 46.6794H37.7309H37.7283H37.7639C38.9941 46.6794 40.1175 46.2346 40.9893 45.4975L40.9816 45.5026L46.4716 40.737L63.1602 55.0695H12.304L28.985 40.7395ZM12.2811 21.6364H63.1907L38.7374 42.8745C38.4624 43.092 38.1221 43.2102 37.7715 43.21H37.7359H37.7385H37.7029C37.3511 43.2105 37.0096 43.0913 36.7345 42.872L36.7371 42.8745L12.2811 21.6364ZM10.7028 24.8541L26.334 38.4368L10.7028 51.8568V24.8541ZM65.6028 18.6499C64.9928 18.3449 64.276 18.167 63.5161 18.167H11.9584C11.2217 18.1672 10.4951 18.3386 9.83607 18.6677L9.86402 18.655C9.07502 19.0441 8.41057 19.6462 7.94571 20.3931C7.48086 21.14 7.23413 22.002 7.2334 22.8818V53.819C7.23474 55.071 7.73271 56.2714 8.61805 57.1567C9.50338 58.0421 10.7038 58.54 11.9558 58.5414H63.5084C64.7605 58.54 65.9609 58.0421 66.8462 57.1567C67.7315 56.2714 68.2295 55.071 68.2309 53.819V22.892V22.8818C68.2309 21.034 67.1659 19.4327 65.6155 18.6626L65.5875 18.6499H65.6028Z" fill="#A0B3BD"/>
</g>
<defs>
<clipPath id="clip0_475_7113">
<rect width="61" height="61" fill="white" transform="translate(7.2334 8)"/>
</clipPath>
</defs>
</svg>
