<svg width="18" height="22" viewBox="0 0 18 22" fill="none" xmlns="http://www.w3.org/2000/svg">
<path d="M1.64844 14.3252H15.5134C15.7035 14.3251 15.8895 14.2672 16.0498 14.1582C16.2102 14.0492 16.3381 13.8936 16.4187 13.7097C16.4993 13.5258 16.5292 13.3211 16.5049 13.1197C16.4805 12.9183 16.403 12.7285 16.2814 12.5724L12.6484 7.9126L16.2814 3.25278C16.403 3.09674 16.4805 2.90689 16.5049 2.70548C16.5292 2.50407 16.4993 2.29942 16.4187 2.11551C16.3381 1.9316 16.2102 1.77603 16.0498 1.66702C15.8895 1.55801 15.7035 1.50008 15.5134 1.5H1.64844V20.7378" fill="#4B5B66"/>
<path d="M1.64844 14.3252H15.5134C15.7035 14.3251 15.8895 14.2672 16.0498 14.1582C16.2102 14.0492 16.3381 13.8936 16.4187 13.7097C16.4993 13.5258 16.5292 13.3211 16.5049 13.1197C16.4805 12.9183 16.403 12.7285 16.2814 12.5724L12.6484 7.9126L16.2814 3.25278C16.403 3.09674 16.4805 2.90689 16.5049 2.70548C16.5292 2.50407 16.4993 2.29942 16.4187 2.11551C16.3381 1.9316 16.2102 1.77603 16.0498 1.66702C15.8895 1.55801 15.7035 1.50008 15.5134 1.5H1.64844V20.7378" stroke="#4B5B66" stroke-width="2" stroke-linecap="round" stroke-linejoin="round"/>
</svg>
