<svg id="Layer_1" data-name="Layer 1" xmlns="http://www.w3.org/2000/svg" viewBox="0 0 350 120"><defs><style>.cls-1{fill:#231f20;}</style></defs><title>GrasshoppHer Logo only</title><path class="cls-1" d="M258.47,60.11V73.83h11.07V60.11h5.22V92.78h-5.22v-14H258.47v14h-5.22V60.11Z"/><path class="cls-1" d="M63.4,69.45h5.13v2.42A7.48,7.48,0,0,1,70.73,70a7.61,7.61,0,0,1,3.82-.79v5h-.46a5.35,5.35,0,0,0-4,1.58,5.81,5.81,0,0,0-1.54,4.2V92.78H63.4Z"/><path class="cls-1" d="M99.76,69.45V92.78H94.53V90.36A7.59,7.59,0,0,1,92,92.18a9.27,9.27,0,0,1-4.14.88,12,12,0,0,1-4.64-.88A11.45,11.45,0,0,1,79.5,89.7,11,11,0,0,1,77,85.92a13.42,13.42,0,0,1,0-9.61,11.21,11.21,0,0,1,2.47-3.78,11.61,11.61,0,0,1,3.71-2.48,12,12,0,0,1,4.64-.88,9.38,9.38,0,0,1,2.22.25,14.41,14.41,0,0,1,1.92.63,7.29,7.29,0,0,1,1.51.87,5.38,5.38,0,0,1,1,1V69.45Zm-5,11.67a7.15,7.15,0,0,0-.52-2.71,7.28,7.28,0,0,0-1.4-2.22,6.46,6.46,0,0,0-2.12-1.51A6.23,6.23,0,0,0,88,74.12a6.47,6.47,0,0,0-2.7.56,6.6,6.6,0,0,0-2.18,1.51,7.58,7.58,0,0,0-1.44,2.22,7,7,0,0,0,0,5.41A7.58,7.58,0,0,0,83.16,86a6.78,6.78,0,0,0,2.18,1.52,6.63,6.63,0,0,0,2.7.56,6.38,6.38,0,0,0,2.64-.56A6.63,6.63,0,0,0,92.8,86a7.28,7.28,0,0,0,1.4-2.22A7.13,7.13,0,0,0,94.72,81.12Z"/><path class="cls-1" d="M109,85.08a2.88,2.88,0,0,0,1,2.31,3.19,3.19,0,0,0,2.13.82,3.1,3.1,0,0,0,2.17-.75,2.75,2.75,0,0,0,.81-2.14,2.64,2.64,0,0,0-.39-1.54,3,3,0,0,0-1-.91,5.77,5.77,0,0,0-1.47-.56q-.84-.21-1.68-.45a7,7,0,0,1-1.75-.72,6.41,6.41,0,0,1-1.56-1.24,5.54,5.54,0,0,1-1.12-1.82,6.73,6.73,0,0,1-.42-2.47,6.51,6.51,0,0,1,.51-2.59,6.08,6.08,0,0,1,1.38-2,6.27,6.27,0,0,1,2-1.33,6.4,6.4,0,0,1,2.52-.49,6.33,6.33,0,0,1,3.19.77,6.88,6.88,0,0,1,2.36,2.21l-3.17,3.13a2.62,2.62,0,0,0-.82-1.12,2,2,0,0,0-1.23-.42,1.68,1.68,0,0,0-1.4.58,2,2,0,0,0-.47,1.29,1.6,1.6,0,0,0,.44,1.21,3.23,3.23,0,0,0,1.17.68c.48.17,1,.33,1.66.49a18.78,18.78,0,0,1,1.86.56,8.56,8.56,0,0,1,1.71.86,6.17,6.17,0,0,1,2.45,3.22,8.33,8.33,0,0,1,.37,2.59,8,8,0,0,1-.61,3.2,7.42,7.42,0,0,1-1.68,2.47,7.15,7.15,0,0,1-2.57,1.61,9,9,0,0,1-3.26.56,8.25,8.25,0,0,1-3.29-.63,7.67,7.67,0,0,1-2.52-1.7,7.21,7.21,0,0,1-1.61-2.52,8.45,8.45,0,0,1-.56-3.13Z"/><path class="cls-1" d="M128.51,85.08a2.88,2.88,0,0,0,1,2.31,3.19,3.19,0,0,0,2.13.82,3.1,3.1,0,0,0,2.17-.75,2.75,2.75,0,0,0,.81-2.14,2.64,2.64,0,0,0-.39-1.54,3,3,0,0,0-1-.91,5.77,5.77,0,0,0-1.47-.56q-.84-.21-1.68-.45a7,7,0,0,1-1.75-.72,6.61,6.61,0,0,1-1.56-1.24,5.54,5.54,0,0,1-1.12-1.82,6.73,6.73,0,0,1-.42-2.47,6.51,6.51,0,0,1,.51-2.59A6.08,6.08,0,0,1,127,71a6.27,6.27,0,0,1,2-1.33,6.87,6.87,0,0,1,5.71.28,6.88,6.88,0,0,1,2.36,2.21L134,75.28a2.62,2.62,0,0,0-.82-1.12,2,2,0,0,0-1.24-.42,1.72,1.72,0,0,0-1.4.58,2,2,0,0,0-.46,1.29,1.56,1.56,0,0,0,.44,1.21,3.31,3.31,0,0,0,1.17.68c.48.17,1,.33,1.65.49a18.18,18.18,0,0,1,1.87.56,8.23,8.23,0,0,1,1.7.86,6.09,6.09,0,0,1,1.45,1.33,6.31,6.31,0,0,1,1,1.89,8.33,8.33,0,0,1,.37,2.59,8,8,0,0,1-.61,3.2,7.42,7.42,0,0,1-1.68,2.47,7.24,7.24,0,0,1-2.57,1.61,9,9,0,0,1-3.26.56,8.25,8.25,0,0,1-3.29-.63,7.67,7.67,0,0,1-2.52-1.7,7.21,7.21,0,0,1-1.61-2.52,8.45,8.45,0,0,1-.56-3.13Z"/><path class="cls-1" d="M144.14,65.11l5.14-.56v7.56A8.46,8.46,0,0,1,156,69.17a8.7,8.7,0,0,1,6.58,2.47q2.39,2.48,2.38,7.14v14h-5.13V79.9a6.86,6.86,0,0,0-1.22-4.31A4.57,4.57,0,0,0,154.69,74a5,5,0,0,0-4,1.66,6.19,6.19,0,0,0-1.44,4.22V92.78h-5.14Z"/><path class="cls-1" d="M168.93,81.12a12.42,12.42,0,0,1,.88-4.74,11.34,11.34,0,0,1,2.5-3.78,11.54,11.54,0,0,1,3.78-2.52,13,13,0,0,1,9.54,0,11.39,11.39,0,0,1,6.31,6.3,13.18,13.18,0,0,1,0,9.47,11.39,11.39,0,0,1-6.31,6.3,13,13,0,0,1-9.54,0,11.46,11.46,0,0,1-6.28-6.3A12.37,12.37,0,0,1,168.93,81.12Zm5.22,0a7.81,7.81,0,0,0,.49,2.82A6.72,6.72,0,0,0,176,86.16a6.13,6.13,0,0,0,2.12,1.44,7,7,0,0,0,2.73.52,6.88,6.88,0,0,0,2.73-.52,6.08,6.08,0,0,0,2.13-1.44,6.54,6.54,0,0,0,1.37-2.22,8.39,8.39,0,0,0,0-5.65,6.49,6.49,0,0,0-1.37-2.21,6,6,0,0,0-2.13-1.45,7.06,7.06,0,0,0-2.73-.51,7.13,7.13,0,0,0-2.73.51A6,6,0,0,0,176,76.08a6.67,6.67,0,0,0-1.38,2.21A7.82,7.82,0,0,0,174.15,81.12Z"/><path class="cls-1" d="M202.62,69.45v2.42A11.08,11.08,0,0,1,205.45,70a9.29,9.29,0,0,1,4-.81,12.78,12.78,0,0,1,4.74.84,10.23,10.23,0,0,1,3.64,2.4,10.88,10.88,0,0,1,2.36,3.78,14.92,14.92,0,0,1,0,9.87,10.88,10.88,0,0,1-2.36,3.76,10.23,10.23,0,0,1-3.64,2.4,12.78,12.78,0,0,1-4.74.84,10.46,10.46,0,0,1-4-.74,7.73,7.73,0,0,1-2.87-2v14.09l-5.13.56V69.45Zm-.09,11.67a7.61,7.61,0,0,0,.49,2.77,6.88,6.88,0,0,0,1.35,2.22,6.31,6.31,0,0,0,2.1,1.47,7.43,7.43,0,0,0,5.56,0,6.5,6.5,0,0,0,2.12-1.47,6.62,6.62,0,0,0,1.38-2.22,8.1,8.1,0,0,0,0-5.55,6.62,6.62,0,0,0-1.38-2.22A6.5,6.5,0,0,0,212,74.65a7.56,7.56,0,0,0-5.56,0,6.31,6.31,0,0,0-2.1,1.47A6.88,6.88,0,0,0,203,78.34,7.67,7.67,0,0,0,202.53,81.12Z"/><path class="cls-1" d="M230.86,69.45v2.42A11,11,0,0,1,233.68,70a9.33,9.33,0,0,1,4-.81,12.82,12.82,0,0,1,4.74.84,10.32,10.32,0,0,1,3.64,2.4,10.86,10.86,0,0,1,2.35,3.78,14.92,14.92,0,0,1,0,9.87,10.86,10.86,0,0,1-2.35,3.76,10.32,10.32,0,0,1-3.64,2.4,12.82,12.82,0,0,1-4.74.84,10.46,10.46,0,0,1-4-.74,7.64,7.64,0,0,1-2.87-2v14.09l-5.14.56V69.45Zm-.1,11.67a7.62,7.62,0,0,0,.5,2.77,6.55,6.55,0,0,0,1.35,2.22,6.21,6.21,0,0,0,2.1,1.47,7.4,7.4,0,0,0,5.55,0,6.54,6.54,0,0,0,2.13-1.47,6.44,6.44,0,0,0,1.37-2.22,8.1,8.1,0,0,0,0-5.55,6.44,6.44,0,0,0-1.37-2.22,6.54,6.54,0,0,0-2.13-1.47,7.53,7.53,0,0,0-5.55,0,6.21,6.21,0,0,0-2.1,1.47,6.55,6.55,0,0,0-1.35,2.22A7.67,7.67,0,0,0,230.76,81.12Z"/><path class="cls-1" d="M284.34,82.89a5.87,5.87,0,0,0,.77,2.08,6.89,6.89,0,0,0,1.47,1.68,7.41,7.41,0,0,0,2,1.14,6.55,6.55,0,0,0,2.36.42,8.39,8.39,0,0,0,3.15-.56A4.52,4.52,0,0,0,296.2,86h6.11a9.91,9.91,0,0,1-1.7,2.89A11,11,0,0,1,298,91.1a12.43,12.43,0,0,1-3.32,1.45,13.89,13.89,0,0,1-3.77.51,11.83,11.83,0,0,1-11.07-7.28,11.79,11.79,0,0,1-.93-4.66,12,12,0,0,1,.91-4.67,11.63,11.63,0,0,1,6.3-6.35,12.07,12.07,0,0,1,9.29,0,11.85,11.85,0,0,1,7.21,11,11.14,11.14,0,0,1-.14,1.77Zm6.44-9a6.25,6.25,0,0,0-2.12.35,6.94,6.94,0,0,0-1.82.93,6.2,6.2,0,0,0-1.4,1.4,5.85,5.85,0,0,0-.86,1.71H297a5.85,5.85,0,0,0-.86-1.71,6.2,6.2,0,0,0-1.4-1.4,7.1,7.1,0,0,0-1.82-.93A6.26,6.26,0,0,0,290.78,73.93Z"/><path class="cls-1" d="M307.49,69.45h5.14v2.42A7.44,7.44,0,0,1,314.82,70a7.62,7.62,0,0,1,3.83-.79v5h-.47a5.31,5.31,0,0,0-4,1.58,5.77,5.77,0,0,0-1.54,4.2V92.78h-5.14Z"/><path class="cls-1" d="M148.68,49.35a.87.87,0,0,1,.34,1.18.89.89,0,0,1-1.18.36.87.87,0,0,1-.36-1.19A.87.87,0,0,1,148.68,49.35Z"/><path class="cls-1" d="M152.5,43.69a1.08,1.08,0,1,1-1.28,1.74,1.08,1.08,0,0,1,1.28-1.74Z"/><path class="cls-1" d="M157.25,38.24a1.32,1.32,0,0,1,.06,1.81,1.28,1.28,0,1,1-1.87-1.75A1.25,1.25,0,0,1,157.25,38.24Z"/><path class="cls-1" d="M162.93,33.13a1.54,1.54,0,0,1-.19,2.1,1.51,1.51,0,0,1-2.08-.18,1.47,1.47,0,0,1,.19-2.1A1.45,1.45,0,0,1,162.93,33.13Z"/><path class="cls-1" d="M169.56,28.59a1.71,1.71,0,0,1-.53,2.32,1.75,1.75,0,0,1-2.33-.53,1.64,1.64,0,0,1,.53-2.32A1.66,1.66,0,0,1,169.56,28.59Z"/><path class="cls-1" d="M177.09,24.8a1.85,1.85,0,0,1-1,2.44,1.89,1.89,0,1,1,1-2.44Z"/><path class="cls-1" d="M185.44,21.88a2.18,2.18,0,0,1-1.39,2.62,2.1,2.1,0,0,1-2.59-1.36,2.06,2.06,0,0,1,1.38-2.63A2,2,0,0,1,185.44,21.88Z"/><path class="cls-1" d="M194.53,20.17a2.27,2.27,0,0,1-1.91,2.56A2.36,2.36,0,0,1,190,20.87a2.22,2.22,0,0,1,1.89-2.66A2.31,2.31,0,0,1,194.53,20.17Z"/><path class="cls-1" d="M204.16,19.59a2.42,2.42,0,0,1-.74,1.72,2.48,2.48,0,0,1-1.7.8,2.52,2.52,0,0,1-2.54-2.39,2.55,2.55,0,0,1,4.27-1.93A2.51,2.51,0,0,1,204.16,19.59Z"/><path class="cls-1" d="M214.17,20.59a2.7,2.7,0,0,1-5.34-.75,2.58,2.58,0,0,1,3-2.3A2.61,2.61,0,0,1,214.17,20.59Z"/><path class="cls-1" d="M224.25,23.35a3,3,0,0,1-3.62,1.87A2.82,2.82,0,0,1,219,23.81a3,3,0,0,1-.27-2.18,2.81,2.81,0,0,1,1.37-1.77,3,3,0,0,1,2.27-.17A2.8,2.8,0,0,1,224.25,23.35Z"/><path class="cls-1" d="M234.12,27.89a3.2,3.2,0,0,1-1.83,1.48,3.3,3.3,0,0,1-2.29-.16,3.14,3.14,0,0,1-1.41-4.11,3,3,0,0,1,4.18-1.44,3,3,0,0,1,1.6,1.85A3,3,0,0,1,234.12,27.89Z"/><path class="cls-1" d="M243.52,34.09a3.3,3.3,0,0,1-5.39-3.81,3.3,3.3,0,1,1,5.39,3.81Z"/><path class="cls-1" d="M252.1,42a3.5,3.5,0,0,1-5-4.92,3.43,3.43,0,0,1,5-.1A3.39,3.39,0,0,1,252.1,42Z"/><path class="cls-1" d="M52.5,88.35a12.19,12.19,0,0,1-4.71,3.55,14.9,14.9,0,0,1-5.88,1.16,15.78,15.78,0,0,1-6.42-1.3A16,16,0,0,1,27,82.94a18,18,0,0,1,0-13,16,16,0,0,1,8.52-8.82,15.78,15.78,0,0,1,6.42-1.31A15,15,0,0,1,49,61.47a17.25,17.25,0,0,1,5.34,4.34l-3.64,3.64A11.47,11.47,0,0,0,47,66a10,10,0,0,0-5.13-1.26,10.33,10.33,0,0,0-4.37.91,10.86,10.86,0,0,0-3.43,2.47,11.19,11.19,0,0,0-2.24,3.71,13.73,13.73,0,0,0,0,9.18,11.16,11.16,0,0,0,2.24,3.68,10.89,10.89,0,0,0,3.43,2.48,10.49,10.49,0,0,0,4.37.91A10,10,0,0,0,49,85.57a11.62,11.62,0,0,0,3.52-6.79H41.72V73.84H57.36V92.78H52.5Z"/></svg>