<svg width="25" height="25" viewBox="0 0 25 25" fill="none" xmlns="http://www.w3.org/2000/svg">
<path d="M12.5002 10.4168V16.6668M12.5002 22.9168C18.2533 22.9168 22.9168 18.2533 22.9168 12.5002C22.9187 11.1335 22.6507 9.77991 22.1283 8.51702C21.6059 7.25414 20.8393 6.1068 19.8726 5.1408C18.9061 4.17015 17.7571 3.4003 16.4918 2.87559C15.2265 2.35088 13.8699 2.08169 12.5002 2.08351C11.1304 2.08169 9.77381 2.35088 8.50853 2.87559C7.24324 3.4003 6.09427 4.17015 5.12778 5.1408C4.16101 6.1068 3.39444 7.25414 2.87204 8.51702C2.34963 9.77991 2.08167 11.1335 2.08351 12.5002C2.08351 18.2533 6.74705 22.9168 12.5002 22.9168ZM2.08351 12.5002H4.16684H2.08351ZM5.12778 5.1408L6.75798 6.771L5.12778 5.1408ZM12.5002 2.08351V4.16684V2.08351ZM22.9168 12.5002H20.8335H22.9168ZM19.8726 5.1408L18.2424 6.771L19.8726 5.1408Z" stroke="white" stroke-linecap="round" stroke-linejoin="round"/>
<path d="M20.7571 18.8524C18.8535 21.3243 15.8634 22.917 12.5009 22.917C9.13838 22.917 6.14932 21.3243 4.24463 18.8524C6.75883 17.4159 9.60523 16.6625 12.5009 16.667C15.3965 16.6625 18.2429 17.4159 20.7571 18.8524V18.8524Z" stroke="white" stroke-linecap="round" stroke-linejoin="round"/>
</svg>
