<svg width="23" height="23" viewBox="0 0 23 23" fill="none" xmlns="http://www.w3.org/2000/svg">
<path d="M21 13C21 13 17.5 9 11 9C4.5 9 1 13 1 13" stroke="#6E8791" stroke-width="2" stroke-linecap="round" stroke-linejoin="round"/>
<path d="M1 13C1 13 4.5 18 11 18C17.5 18 21 13 21 13" stroke="#6E8791" stroke-width="2" stroke-linecap="round" stroke-linejoin="round"/>
<path d="M19 11.355L21 8.99998" stroke="#6E8791" stroke-width="2" stroke-linecap="round" stroke-linejoin="round"/>
<path d="M1.00009 8.99981L2.99609 11.3518" stroke="#6E8791" stroke-width="2" stroke-linecap="round" stroke-linejoin="round"/>
<path d="M14.086 9.31982L15 6.49982" stroke="#6E8791" stroke-width="2" stroke-linecap="round" stroke-linejoin="round"/>
<path d="M7.93652 9.31201L6.99952 6.50001" stroke="#6E8791" stroke-width="2" stroke-linecap="round" stroke-linejoin="round"/>
<path d="M14.5 13.5C14.5 15.7661 12.8793 17.5 11 17.5C9.12074 17.5 7.5 15.7661 7.5 13.5C7.5 11.2339 9.12074 9.5 11 9.5C12.8793 9.5 14.5 11.2339 14.5 13.5Z" stroke="#6E8691"/>
</svg>
