<svg width="33" height="33" viewBox="0 0 33 33" fill="none" xmlns="http://www.w3.org/2000/svg">
<path d="M29.9451 16.3337C29.9451 8.81749 23.8513 2.72235 16.3338 2.72235C8.81624 2.72235 2.72246 8.81749 2.72246 16.3337C2.72246 16.9407 2.76329 17.5383 2.83952 18.1249C2.98357 17.5657 3.25479 17.0472 3.63207 16.61C4.00934 16.1727 4.48248 15.8285 5.0146 15.6041C5.39164 9.68862 10.3244 4.99135 16.3338 4.99135C22.5882 4.99135 27.6761 10.0793 27.6761 16.3337C27.6761 22.128 23.3096 26.9205 17.6949 27.5943V29.2644C17.6949 29.4754 17.6758 29.6823 17.6391 29.8837C24.5441 29.2263 29.9451 23.4102 29.9451 16.3337ZM17.0048 9.04889C16.9696 8.79265 16.8384 8.55936 16.6377 8.39613C16.4371 8.23291 16.182 8.15193 15.9239 8.16956C15.6659 8.18719 15.4241 8.30211 15.2476 8.49111C15.071 8.6801 14.9727 8.92907 14.9726 9.18772L14.9726 17.3545L14.9822 17.4933C15.0157 17.7377 15.1366 17.9617 15.3225 18.1239C15.5085 18.286 15.7468 18.3753 15.9935 18.3754H21.438L21.5768 18.3658C21.8331 18.3306 22.0664 18.1994 22.2296 17.9987C22.3928 17.7981 22.4738 17.543 22.4562 17.2849C22.4385 17.0269 22.3236 16.7851 22.1346 16.6086C21.9456 16.432 21.6967 16.3337 21.438 16.3337H17.0143V9.18772L17.0048 9.04889ZM4.08359 20.4171H3.40302C2.86153 20.4171 2.34222 20.6322 1.95933 21.0151C1.57643 21.3979 1.36133 21.9173 1.36133 22.4588L1.36133 24.5004H4.76416V24.1602C4.76416 23.8894 4.87171 23.6298 5.06316 23.4383C5.2546 23.2469 5.51426 23.1393 5.785 23.1393C6.05575 23.1393 6.31541 23.2469 6.50685 23.4383C6.6983 23.6298 6.80585 23.8894 6.80585 24.1602V24.5004H10.8892V24.1602C10.8892 23.8894 10.9968 23.6298 11.1882 23.4383C11.3797 23.2469 11.6393 23.1393 11.9101 23.1393C12.1808 23.1393 12.4405 23.2469 12.6319 23.4383C12.8234 23.6298 12.9309 23.8894 12.9309 24.1602V24.5004H16.3338V22.4588C16.3338 21.9173 16.1187 21.3979 15.7358 21.0151C15.3529 20.6322 14.8336 20.4171 14.2921 20.4171H13.6115V19.0559C13.6115 18.4242 13.3606 17.8183 12.9138 17.3716C12.4671 16.9249 11.8613 16.6739 11.2295 16.6739H6.46557C5.83383 16.6739 5.22796 16.9249 4.78126 17.3716C4.33455 17.8183 4.08359 18.4242 4.08359 19.0559V20.4171ZM6.12529 19.0559C6.12529 18.9657 6.16114 18.8791 6.22495 18.8153C6.28877 18.7515 6.37532 18.7156 6.46557 18.7156H11.2295C11.3198 18.7156 11.4063 18.7515 11.4701 18.8153C11.534 18.8791 11.5698 18.9657 11.5698 19.0559V20.4171H6.12529V19.0559ZM1.36133 29.2644L1.36133 26.5421H4.76416V27.563C4.76416 27.8337 4.87171 28.0934 5.06316 28.2848C5.2546 28.4763 5.51426 28.5838 5.785 28.5838C6.05575 28.5838 6.31541 28.4763 6.50685 28.2848C6.6983 28.0934 6.80585 27.8337 6.80585 27.563L6.80585 26.5421H10.8892V27.563C10.8892 27.8337 10.9968 28.0934 11.1882 28.2848C11.3797 28.4763 11.6393 28.5838 11.9101 28.5838C12.1808 28.5838 12.4405 28.4763 12.6319 28.2848C12.8234 28.0934 12.9309 27.8337 12.9309 27.563V26.5421H16.3338V29.2644C16.3338 29.8059 16.1187 30.3252 15.7358 30.7081C15.3529 31.091 14.8336 31.3061 14.2921 31.3061H3.40302C2.86153 31.3061 2.34222 31.091 1.95933 30.7081C1.57643 30.3252 1.36133 29.8059 1.36133 29.2644Z" fill="#A0B3BD"/>
</svg>
