<svg width="27" height="27" viewBox="0 0 27 27" fill="none" xmlns="http://www.w3.org/2000/svg">
<path d="M8.21434 11.8243H3.27549C3.23484 11.8243 3.1942 11.8221 3.15366 11.8181C3.13535 11.8164 3.11765 11.813 3.09954 11.8103C3.07773 11.8072 3.05581 11.8046 3.0342 11.8003C3.01373 11.7962 2.99397 11.7906 2.97391 11.7856C2.95487 11.7809 2.93573 11.7766 2.9169 11.771C2.89735 11.765 2.87873 11.7578 2.8597 11.7509C2.84066 11.7441 2.82152 11.7379 2.80269 11.7301C2.7852 11.7228 2.76833 11.7142 2.75114 11.7062C2.7318 11.6971 2.71225 11.6885 2.69322 11.6783C2.67696 11.6695 2.66152 11.6596 2.64568 11.6502C2.62695 11.639 2.60792 11.6284 2.5896 11.6161C2.57252 11.6047 2.55647 11.5919 2.54001 11.5796C2.52416 11.5679 2.50801 11.5569 2.49268 11.5442C2.46345 11.5201 2.43533 11.4947 2.40841 11.4681C2.40645 11.4662 2.40429 11.4646 2.40244 11.4626C2.40059 11.4607 2.39884 11.4585 2.39688 11.4564C2.37023 11.4296 2.34482 11.4015 2.32074 11.3723C2.3084 11.3573 2.29769 11.3414 2.28607 11.326C2.27362 11.3092 2.26055 11.2928 2.24892 11.2754C2.23668 11.2571 2.22608 11.2383 2.21497 11.2195C2.2055 11.2036 2.19542 11.1881 2.18678 11.1717C2.17659 11.1528 2.16795 11.1333 2.15889 11.1139C2.15076 11.0967 2.14222 11.08 2.13492 11.0623C2.1271 11.0434 2.12082 11.0242 2.11393 11.005C2.10714 10.9861 2.09993 10.9675 2.09407 10.9484C2.08821 10.9289 2.08388 10.9093 2.07905 10.8897C2.07411 10.8702 2.06876 10.8509 2.06475 10.8311C2.06022 10.8084 2.05754 10.7855 2.05425 10.7625C2.05188 10.7456 2.04859 10.7289 2.04695 10.7116C2.04283 10.6709 2.04077 10.6299 2.04077 10.5891V5.65071C2.04077 5.32325 2.17086 5.00919 2.40241 4.77764C2.63396 4.54609 2.94802 4.416 3.27549 4.416C3.60295 4.416 3.91701 4.54609 4.14856 4.77764C4.38011 5.00919 4.5102 5.32325 4.5102 5.65071V7.60877L5.89473 6.22414C7.82588 4.29739 10.4424 3.21533 13.1704 3.21533C15.8983 3.21533 18.5149 4.29739 20.446 6.22414C20.6745 6.45633 20.8019 6.76938 20.8006 7.0951C20.7993 7.42082 20.6693 7.73282 20.439 7.96315C20.2086 8.19347 19.8966 8.32345 19.5709 8.32478C19.2452 8.3261 18.9321 8.19867 18.6999 7.97023C17.2323 6.50589 15.2437 5.68351 13.1704 5.68351C11.0972 5.68351 9.10859 6.50589 7.64092 7.97023L6.2564 9.35496H8.21434C8.54181 9.35496 8.85587 9.48505 9.08742 9.7166C9.31897 9.94815 9.44906 10.2622 9.44906 10.5897C9.44906 10.9171 9.31897 11.2312 9.08742 11.4627C8.85587 11.6943 8.54181 11.8244 8.21434 11.8244V11.8243ZM24.2938 16.288C24.2922 16.2707 24.2889 16.254 24.2865 16.2371C24.2832 16.2141 24.2806 16.1912 24.276 16.1684C24.2721 16.1487 24.2667 16.1293 24.2616 16.1099C24.2569 16.0903 24.2526 16.0707 24.2466 16.0512C24.2408 16.032 24.2335 16.0135 24.2268 15.9946C24.2199 15.9754 24.2137 15.9562 24.2059 15.9373C24.1985 15.9196 24.1899 15.9028 24.1819 15.8856C24.1727 15.8662 24.1642 15.8468 24.154 15.8278C24.1452 15.8114 24.1353 15.796 24.1258 15.7801C24.1147 15.7614 24.1041 15.7424 24.0918 15.7242C24.0802 15.7067 24.0672 15.6904 24.0546 15.6736C24.0431 15.6582 24.0324 15.6423 24.02 15.6273C23.9959 15.5981 23.9705 15.57 23.9439 15.543L23.9383 15.5369C23.9364 15.5348 23.9342 15.5334 23.9323 15.5315C23.9054 15.5049 23.8773 15.4795 23.8481 15.4554C23.8327 15.4426 23.8163 15.4315 23.8003 15.4197C23.7841 15.4075 23.7681 15.3949 23.7512 15.3836C23.7326 15.3711 23.7134 15.3603 23.6944 15.349C23.6788 15.3397 23.6636 15.3299 23.6477 15.3214C23.6284 15.3111 23.6087 15.3024 23.589 15.2931C23.5721 15.2852 23.5555 15.2767 23.5382 15.2694C23.519 15.2616 23.4995 15.2552 23.4801 15.2483C23.4616 15.2417 23.4431 15.2345 23.4241 15.2287C23.4045 15.2228 23.3849 15.2184 23.3651 15.2135C23.3458 15.2086 23.3266 15.2032 23.3069 15.1993C23.284 15.1947 23.2611 15.1921 23.2381 15.1888C23.2212 15.1864 23.2045 15.1831 23.1874 15.1816C23.1466 15.1775 23.1057 15.1753 23.0648 15.1754H18.1264C17.799 15.1754 17.4849 15.3055 17.2534 15.537C17.0218 15.7686 16.8917 16.0827 16.8917 16.4101C16.8917 16.7376 17.0218 17.0516 17.2534 17.2832C17.4849 17.5147 17.799 17.6448 18.1264 17.6448H20.0845L18.6998 19.0293C17.2322 20.4936 15.2436 21.3159 13.1704 21.3159C11.0972 21.3159 9.10859 20.4936 7.64092 19.0293C7.40873 18.8008 7.09568 18.6734 6.76996 18.6747C6.44424 18.676 6.13223 18.806 5.90191 19.0363C5.67159 19.2667 5.54161 19.5787 5.54028 19.9044C5.53895 20.2301 5.66639 20.5432 5.89483 20.7754C7.82598 22.7021 10.4425 23.7841 13.1704 23.7841C15.8984 23.7841 18.5149 22.7021 20.446 20.7754L21.8306 19.3909V21.349C21.8306 21.6764 21.9607 21.9905 22.1922 22.2221C22.4238 22.4536 22.7378 22.5837 23.0653 22.5837C23.3928 22.5837 23.7068 22.4536 23.9384 22.2221C24.1699 21.9905 24.3 21.6764 24.3 21.349V16.4105C24.3 16.3697 24.2979 16.3287 24.2938 16.288Z" fill="#004878"/>
</svg>
