<svg width="24" height="24" viewBox="0 0 24 24" fill="none" xmlns="http://www.w3.org/2000/svg">
<path d="M20.4847 3H16.4927L16.9927 8C16.9927 8 17.9927 9 19.4927 9C20.2801 9.00104 21.0408 8.71441 21.6317 8.194C21.6941 8.13563 21.7407 8.0623 21.7669 7.98094C21.7932 7.89958 21.7982 7.81287 21.7817 7.729L21.0757 3.5C21.0521 3.36029 20.9798 3.23345 20.8716 3.14194C20.7634 3.05042 20.6264 3.00014 20.4847 3V3Z" stroke="white" stroke-width="1.5"/>
<path d="M16.4927 3L16.9927 8C16.9927 8 15.9927 9 14.4927 9C12.9927 9 11.9927 8 11.9927 8V3H16.4927Z" stroke="white" stroke-width="1.5"/>
<path d="M11.9927 3V8C11.9927 8 10.9927 9 9.49268 9C7.99268 9 6.99268 8 6.99268 8L7.49268 3H11.9927Z" stroke="white" stroke-width="1.5"/>
<path d="M7.49284 3H3.50184C3.35984 2.99995 3.22242 3.05026 3.11402 3.142C3.00562 3.23373 2.93328 3.36094 2.90984 3.501L2.20484 7.73C2.17584 7.902 2.22484 8.079 2.35484 8.195C2.68284 8.485 3.41584 9.001 4.49284 9.001C5.99284 9.001 6.99284 8.001 6.99284 8.001L7.49284 3.001V3Z" stroke="white" stroke-width="1.5"/>
<path d="M3 9V19C3 19.5304 3.21071 20.0391 3.58579 20.4142C3.96086 20.7893 4.46957 21 5 21H19C19.5304 21 20.0391 20.7893 20.4142 20.4142C20.7893 20.0391 21 19.5304 21 19V9" stroke="white" stroke-width="1.5"/>
<path d="M14.833 21V15C14.833 14.4696 14.6223 13.9609 14.2472 13.5858C13.8721 13.2107 13.3634 13 12.833 13H10.833C10.3026 13 9.79387 13.2107 9.41879 13.5858C9.04372 13.9609 8.83301 14.4696 8.83301 15V21" stroke="white" stroke-width="1.5" stroke-miterlimit="16"/>
</svg>
