<svg width="25" height="21" viewBox="0 0 25 21" fill="none" xmlns="http://www.w3.org/2000/svg">
<path d="M17.5243 20.6325C18.0614 21.1225 18.9134 21.1225 19.4506 20.6325L24.5442 15.995C24.6819 15.877 24.7931 15.7341 24.8713 15.5747C24.9494 15.4153 24.9929 15.2427 24.9992 15.0672C25.0055 14.8916 24.9744 14.7167 24.9078 14.5527C24.8412 14.3887 24.7404 14.239 24.6115 14.1125C24.4825 13.9859 24.328 13.8851 24.1571 13.8161C23.9861 13.747 23.8022 13.7111 23.6163 13.7104C23.4304 13.7097 23.2463 13.7442 23.0747 13.812C22.9032 13.8798 22.7479 13.9794 22.6179 14.105L19.8766 16.6005V1.3125C19.8766 0.964403 19.7302 0.630564 19.4697 0.384422C19.2092 0.138281 18.8559 0 18.4874 0C18.119 0 17.7657 0.138281 17.5052 0.384422C17.2446 0.630564 17.0983 0.964403 17.0983 1.3125V16.6005L14.357 14.105C14.227 13.9794 14.0716 13.8798 13.9001 13.812C13.7286 13.7442 13.5444 13.7097 13.3585 13.7104C13.1726 13.7111 12.9887 13.747 12.8178 13.8161C12.6469 13.8851 12.4923 13.9859 12.3634 14.1125C12.2344 14.239 12.1337 14.3887 12.0671 14.5527C12.0005 14.7167 11.9694 14.8916 11.9757 15.0672C11.9819 15.2427 12.0255 15.4153 12.1036 15.5747C12.1818 15.7341 12.293 15.877 12.4307 15.995L17.5243 20.6325ZM7.42975 0.385C7.16928 0.139212 6.81621 0.0011549 6.44808 0.0011549C6.07995 0.0011549 5.72688 0.139212 5.46641 0.385L0.372834 5.1975C0.127454 5.44631 -0.00613335 5.77539 0.000216425 6.11541C0.0065662 6.45544 0.152357 6.77987 0.406875 7.02034C0.661392 7.26081 1.00476 7.39856 1.36465 7.40456C1.72454 7.41056 2.07284 7.28434 2.33618 7.0525L5.05892 4.48V19.6875C5.05892 20.0356 5.20528 20.3694 5.4658 20.6156C5.72631 20.8617 6.07965 21 6.44808 21C6.81651 21 7.16984 20.8617 7.43036 20.6156C7.69088 20.3694 7.83723 20.0356 7.83723 19.6875V4.48L10.56 7.0525C10.8233 7.28434 11.1716 7.41056 11.5315 7.40456C11.8914 7.39856 12.2348 7.26081 12.4893 7.02034C12.7438 6.77987 12.8896 6.45544 12.8959 6.11541C12.9023 5.77539 12.7687 5.44631 12.5233 5.1975L7.42975 0.385Z" fill="#023252"/>
</svg>
