<svg width="15" height="15" viewBox="0 0 15 15" fill="none" xmlns="http://www.w3.org/2000/svg">
<path d="M6.50444 1.71709C6.70658 1.23285 7.39263 1.23285 7.59478 1.71709L8.89078 4.82169C8.97157 5.01522 9.1489 5.15141 9.35672 5.17954L12.7899 5.64421C13.302 5.71352 13.4846 6.36059 13.0842 6.68734L10.4404 8.84479C10.2659 8.98715 10.1875 9.21631 10.2383 9.43568L11.0831 13.0864C11.2053 13.6143 10.6117 14.0144 10.1682 13.7032L7.38899 11.7526C7.18531 11.6096 6.9139 11.6096 6.71022 11.7526L3.93098 13.7032C3.48749 14.0145 2.8939 13.6143 3.01604 13.0865L3.86081 9.43567C3.91158 9.2163 3.83322 8.98715 3.65877 8.84479L1.015 6.68734C0.614601 6.36059 0.797145 5.71352 1.30928 5.64421L4.7425 5.17954C4.95031 5.15141 5.12764 5.01522 5.20843 4.82169L6.50444 1.71709Z" fill="white" stroke="white" stroke-width="1.57537" stroke-miterlimit="3.3292" stroke-linecap="round" stroke-linejoin="round"/>
</svg>
