<svg width="16" height="16" viewBox="0 0 16 16" fill="none" xmlns="http://www.w3.org/2000/svg">
<path d="M7.09633 1.06586C7.33871 0.485245 8.16129 0.485245 8.40366 1.06586L9.9576 4.78832C10.0545 5.02036 10.2671 5.18366 10.5163 5.21739L14.6327 5.77453C15.2468 5.85764 15.4656 6.63349 14.9855 7.02526L11.8156 9.61207C11.6064 9.78277 11.5124 10.0575 11.5733 10.3206L12.5863 14.6979C12.7327 15.3308 12.021 15.8106 11.4892 15.4373L8.15692 13.0985C7.91271 12.9271 7.58729 12.9271 7.34307 13.0985L4.01073 15.4374C3.47897 15.8106 2.76725 15.3308 2.9137 14.6979L3.92659 10.3206C3.98746 10.0575 3.89351 9.78277 3.68434 9.61207L0.514425 7.02526C0.0343398 6.63348 0.25321 5.85764 0.867263 5.77453L4.98374 5.21739C5.23292 5.18366 5.44554 5.02037 5.5424 4.78832L7.09633 1.06586Z" fill="#6E8791"/>
</svg>
