<svg width="17" height="18" viewBox="0 0 17 18" fill="none" xmlns="http://www.w3.org/2000/svg">
<path d="M8.09633 2.06586C8.33871 1.48525 9.16129 1.48524 9.40366 2.06586L10.9576 5.78832C11.0545 6.02036 11.2671 6.18366 11.5163 6.21739L15.6327 6.77453C16.2468 6.85764 16.4656 7.63349 15.9855 8.02526L12.8156 10.6121C12.6064 10.7828 12.5124 11.0575 12.5733 11.3206L13.5863 15.6979C13.7327 16.3308 13.021 16.8106 12.4892 16.4373L9.15692 14.0985C8.91271 13.9271 8.58729 13.9271 8.34307 14.0985L5.01073 16.4374C4.47897 16.8106 3.76725 16.3308 3.9137 15.6979L4.92659 11.3206C4.98746 11.0575 4.89351 10.7828 4.68434 10.6121L1.51442 8.02526C1.03434 7.63348 1.25321 6.85764 1.86726 6.77453L5.98374 6.21739C6.23292 6.18366 6.44554 6.02037 6.5424 5.78832L8.09633 2.06586Z" fill="white" stroke="#6E8791" stroke-width="1.5" stroke-miterlimit="3.3292" stroke-linecap="round" stroke-linejoin="round"/>
</svg>
