<svg width="24" height="25" viewBox="0 0 24 25" fill="none" xmlns="http://www.w3.org/2000/svg">
<path d="M9.23213 10.9476V17.1577C9.23213 17.4166 9.33499 17.665 9.51807 17.848C9.70116 18.0311 9.94947 18.134 10.2084 18.134C10.4673 18.134 10.7156 18.0311 10.8987 17.848C11.0818 17.665 11.1847 17.4166 11.1847 17.1577V10.9476C11.1847 10.6887 11.0818 10.4403 10.8987 10.2573C10.7156 10.0742 10.4673 9.97131 10.2084 9.97131C9.94947 9.97131 9.70116 10.0742 9.51807 10.2573C9.33499 10.4403 9.23213 10.6887 9.23213 10.9476Z" fill="#DE2B4B" stroke="#DE2B4B" stroke-width="0.4"/>
<path d="M15.0037 10.2572C14.8206 10.0741 14.5723 9.97126 14.3134 9.97126C14.0545 9.97126 13.8061 10.0741 13.6231 10.2572C13.44 10.4403 13.3371 10.6886 13.3371 10.9475V17.1577C13.3371 17.4166 13.44 17.6649 13.6231 17.848C13.8061 18.0311 14.0545 18.1339 14.3134 18.1339C14.5723 18.1339 14.8206 18.0311 15.0037 17.848C15.1868 17.6649 15.2896 17.4166 15.2896 17.1577V10.9475C15.2896 10.6886 15.1868 10.4403 15.0037 10.2572Z" fill="#DE2B4B" stroke="#DE2B4B" stroke-width="0.4"/>
<path d="M7.80476 4.29963H2C1.68174 4.29963 1.37652 4.42606 1.15147 4.65111C0.926428 4.87615 0.8 5.18137 0.8 5.49963C0.8 5.81789 0.926428 6.12312 1.15147 6.34816C1.37652 6.57321 1.68174 6.69963 2 6.69963H2.92499L4.41122 20.0737C4.55251 21.3457 5.15793 22.5209 6.1116 23.3744C7.06527 24.2279 8.3002 24.6998 9.58 24.6996H14.42C15.6998 24.6998 16.9347 24.2279 17.8884 23.3744C18.8421 22.5209 19.4475 21.3457 19.5888 20.0737L21.073 6.69963H22C22.3183 6.69963 22.6235 6.57321 22.8485 6.34816C23.0736 6.12312 23.2 5.81789 23.2 5.49963C23.2 5.18138 23.0736 4.87615 22.8485 4.65111C22.6235 4.42606 22.3183 4.29963 22 4.29963H16.1952C16.1456 3.25852 15.7102 2.27017 14.9698 1.52979C14.1822 0.742132 13.1139 0.299634 12 0.299634C10.8861 0.299634 9.8178 0.742132 9.03015 1.52979C8.28977 2.27017 7.85435 3.25852 7.80476 4.29963ZM10.7272 3.22684C11.0648 2.88928 11.5226 2.69963 12 2.69963C12.4774 2.69963 12.9352 2.88928 13.2728 3.22684C13.5629 3.51693 13.7437 3.89583 13.7889 4.29963H10.2111C10.2563 3.89583 10.4371 3.51693 10.7272 3.22684ZM6.79677 19.8095L5.34143 6.69963H18.6605L17.2012 19.8095C17.125 20.494 16.7992 21.1263 16.2861 21.5857C15.773 22.0451 15.1086 22.2993 14.4199 22.2996H9.58C8.89095 22.2997 8.22608 22.0458 7.71259 21.5863C7.19911 21.1269 6.87304 20.4943 6.79678 19.8096C6.79678 19.8095 6.79677 19.8095 6.79677 19.8095Z" fill="#DE2B4B" stroke="#DE2B4B" stroke-width="0.4"/>
</svg>
