<svg width="444" height="269" viewBox="0 0 444 269" fill="none" xmlns="http://www.w3.org/2000/svg">
<path d="M379.238 286.264C432.339 238.816 436.923 157.305 389.475 104.203C342.028 51.1015 260.517 46.5179 207.415 93.9655C154.313 141.413 149.729 222.924 197.177 276.026C244.625 329.128 326.136 333.711 379.238 286.264Z" fill="#DCF1FF"/>
<mask id="mask0_3330_6858" style="mask-type:alpha" maskUnits="userSpaceOnUse" x="164" y="61" width="259" height="259">
<path d="M293.327 319.052C364.539 319.052 422.267 261.324 422.267 190.113C422.267 118.901 364.539 61.1731 293.327 61.1731C222.116 61.1731 164.388 118.901 164.388 190.113C164.388 261.324 222.116 319.052 293.327 319.052Z" fill="#DCF1FF"/>
</mask>
<g mask="url(#mask0_3330_6858)">
<path d="M342.62 194H401.353C401.784 194 402.209 194.095 402.598 194.278C402.988 194.46 403.333 194.726 403.609 195.057L418.292 212.677C418.979 213.499 418.973 213.916 418.973 214.451V223.367C418.973 228.582 416.706 233.275 413.1 236.499V285.036C413.1 285.815 412.79 286.562 412.24 287.113C411.689 287.664 410.942 287.973 410.163 287.973H371.987V249.797C371.987 249.018 371.677 248.271 371.126 247.72C370.576 247.169 369.829 246.86 369.05 246.86H345.557C344.778 246.86 344.031 247.169 343.48 247.72C342.929 248.271 342.62 249.018 342.62 249.797V287.973H333.81C333.031 287.973 332.284 287.664 331.733 287.113C331.183 286.562 330.873 285.815 330.873 285.036V236.499C327.267 233.269 325 228.582 325 223.367V214.557C325 213.87 325.241 213.205 325.681 212.677L340.365 195.057C340.64 194.726 340.985 194.46 341.375 194.278C341.764 194.095 342.19 194 342.62 194ZM330.873 217.493V223.367C330.873 226.482 332.111 229.47 334.314 231.673C336.517 233.876 339.505 235.113 342.62 235.113C345.735 235.113 348.723 233.876 350.926 231.673C353.129 229.47 354.367 226.482 354.367 223.367V217.493H330.873ZM360.24 217.493V223.367C360.24 226.482 361.478 229.47 363.68 231.673C365.883 233.876 368.871 235.113 371.987 235.113C375.102 235.113 378.09 233.876 380.293 231.673C382.496 229.47 383.733 226.482 383.733 223.367V217.493H360.24ZM389.607 217.493V223.367C389.607 226.482 390.844 229.47 393.047 231.673C395.25 233.876 398.238 235.113 401.353 235.113C404.469 235.113 407.456 233.876 409.659 231.673C411.862 229.47 413.1 226.482 413.1 223.367V217.493H389.607ZM343.994 199.873L334.209 211.62H355.189L359.1 199.873H343.994ZM382.594 211.62L378.682 199.873H365.291L361.379 211.62H382.594ZM388.784 211.62H409.77L399.979 199.873H384.873L388.784 211.62ZM377.86 249.797V267.417C377.86 268.195 378.169 268.942 378.72 269.493C379.271 270.044 380.018 270.353 380.797 270.353H398.417C399.195 270.353 399.942 270.044 400.493 269.493C401.044 268.942 401.353 268.195 401.353 267.417V249.797C401.353 249.018 401.044 248.271 400.493 247.72C399.942 247.169 399.195 246.86 398.417 246.86H380.797C380.018 246.86 379.271 247.169 378.72 247.72C378.169 248.271 377.86 249.018 377.86 249.797Z" fill="#A8DCFF"/>
<path d="M214.19 172C209.366 172 204.739 173.916 201.328 177.328C197.916 180.739 196 185.366 196 190.19L196 323.584C196 326.931 198.716 329.648 202.063 329.648H220.253V295.288C220.253 293.68 220.892 292.138 222.029 291.001C223.166 289.864 224.709 289.225 226.317 289.225H286.951C288.559 289.225 290.101 289.864 291.238 291.001C292.375 292.138 293.014 293.68 293.014 295.288V329.648H318.969C320.577 329.648 322.12 329.009 323.257 327.872C324.394 326.735 325.033 325.192 325.033 323.584L317.267 250.824C317.267 245.999 315.351 241.373 311.94 237.961C308.528 234.55 303.902 232.634 299.077 232.634H293.014V190.19C293.014 185.366 291.097 180.739 287.686 177.328C284.275 173.916 279.648 172 274.824 172H214.19ZM220.253 208.38C220.253 206.236 221.105 204.18 222.621 202.664C224.138 201.147 226.194 200.296 228.338 200.296C230.482 200.296 232.538 201.147 234.055 202.664C235.571 204.18 236.422 206.236 236.422 208.38C236.422 210.524 235.571 212.581 234.055 214.097C232.538 215.613 230.482 216.465 228.338 216.465C226.194 216.465 224.138 215.613 222.621 214.097C221.105 212.581 220.253 210.524 220.253 208.38ZM228.338 256.887C230.482 256.887 232.538 257.739 234.055 259.255C235.571 260.771 236.422 262.827 236.422 264.972C236.422 267.116 235.571 269.172 234.055 270.688C232.538 272.204 230.482 273.056 228.338 273.056C226.194 273.056 224.138 272.204 222.621 270.688C221.105 269.172 220.253 267.116 220.253 264.972C220.253 262.827 221.105 260.771 222.621 259.255C224.138 257.739 226.194 256.887 228.338 256.887ZM220.253 236.676C220.253 234.532 221.105 232.475 222.621 230.959C224.138 229.443 226.194 228.591 228.338 228.591C230.482 228.591 232.538 229.443 234.055 230.959C235.571 232.475 236.422 234.532 236.422 236.676C236.422 238.82 235.571 240.876 234.055 242.393C232.538 243.909 230.482 244.76 228.338 244.76C226.194 244.76 224.138 243.909 222.621 242.393C221.105 240.876 220.253 238.82 220.253 236.676ZM256.634 200.296C258.778 200.296 260.834 201.147 262.35 202.664C263.866 204.18 264.718 206.236 264.718 208.38C264.718 210.524 263.866 212.581 262.35 214.097C260.834 215.613 258.778 216.465 256.634 216.465C254.49 216.465 252.433 215.613 250.917 214.097C249.401 212.581 248.549 210.524 248.549 208.38C248.549 206.236 249.401 204.18 250.917 202.664C252.433 201.147 254.49 200.296 256.634 200.296ZM248.549 264.972C248.549 262.827 249.401 260.771 250.917 259.255C252.433 257.739 254.49 256.887 256.634 256.887C258.778 256.887 260.834 257.739 262.35 259.255C263.866 260.771 264.718 262.827 264.718 264.972C264.718 267.116 263.866 269.172 262.35 270.688C260.834 272.204 258.778 273.056 256.634 273.056C254.49 273.056 252.433 272.204 250.917 270.688C249.401 269.172 248.549 267.116 248.549 264.972ZM284.929 256.887C287.074 256.887 289.13 257.739 290.646 259.255C292.162 260.771 293.014 262.827 293.014 264.972C293.014 267.116 292.162 269.172 290.646 270.688C289.13 272.204 287.074 273.056 284.929 273.056C282.785 273.056 280.729 272.204 279.213 270.688C277.697 269.172 276.845 267.116 276.845 264.972C276.845 262.827 277.697 260.771 279.213 259.255C280.729 257.739 282.785 256.887 284.929 256.887ZM248.549 236.676C248.549 234.532 249.401 232.475 250.917 230.959C252.433 229.443 254.49 228.591 256.634 228.591C258.778 228.591 260.834 229.443 262.35 230.959C263.866 232.475 264.718 234.532 264.718 236.676C264.718 238.82 263.866 240.876 262.35 242.393C260.834 243.909 258.778 244.76 256.634 244.76C254.49 244.76 252.433 243.909 250.917 242.393C249.401 240.876 248.549 238.82 248.549 236.676Z" fill="#A8DCFF"/>
</g>
<path d="M231.418 79.0915C223.389 83.7041 215.865 89.1454 208.97 95.3262C210.385 105.903 207.693 116.62 201.448 125.273C195.202 133.925 185.878 139.855 175.394 141.843C171.699 150.333 168.903 159.188 167.054 168.261C177.822 168.352 188.456 165.861 198.064 160.998C207.672 156.134 215.975 149.04 222.278 140.308C228.58 131.576 232.699 121.462 234.29 110.811C235.88 100.16 234.895 89.2834 231.418 79.0915Z" fill="#A8DCFF"/>
<path d="M157.273 154.577C189.456 157.909 218.246 134.52 221.577 102.337C224.909 70.1535 201.52 41.3633 169.337 38.032C137.154 34.7006 108.363 58.0896 105.032 90.2727C101.701 122.456 125.09 151.246 157.273 154.577Z" fill="#3688BE"/>
<path d="M196.923 95.88C196.923 78.8235 183.094 64.9917 166.034 64.9917C148.975 64.9917 135.146 78.8235 135.146 95.88C135.146 97.2576 135.239 98.6136 135.412 99.9449C135.738 98.6758 136.354 97.4992 137.21 96.507C138.066 95.5148 139.14 94.7336 140.348 94.2244C141.203 80.8003 152.397 70.1408 166.034 70.1408C180.227 70.1408 191.773 81.6868 191.773 95.88C191.773 109.029 181.864 119.905 169.123 121.434V125.224C169.123 125.703 169.08 126.172 168.996 126.629C184.666 125.137 196.923 111.939 196.923 95.88ZM167.557 79.3486C167.477 78.7671 167.179 78.2377 166.724 77.8673C166.269 77.4969 165.69 77.3131 165.104 77.3531C164.519 77.3931 163.97 77.6539 163.569 78.0828C163.169 78.5117 162.946 79.0767 162.945 79.6636V98.1966L162.967 98.5117C163.043 99.0663 163.318 99.5746 163.739 99.9425C164.161 100.31 164.702 100.513 165.262 100.513H177.617L177.932 100.492C178.514 100.412 179.043 100.114 179.414 99.6585C179.784 99.2032 179.968 98.6243 179.928 98.0387C179.888 97.4531 179.627 96.9045 179.198 96.5038C178.769 96.1031 178.204 95.8802 177.617 95.88H167.579V79.6636L167.557 79.3486ZM138.235 105.146H136.69C135.462 105.146 134.283 105.635 133.414 106.504C132.545 107.372 132.057 108.551 132.057 109.78V114.413H139.779V113.641C139.779 113.026 140.023 112.437 140.458 112.003C140.892 111.568 141.481 111.324 142.096 111.324C142.71 111.324 143.299 111.568 143.734 112.003C144.168 112.437 144.412 113.026 144.412 113.641V114.413H153.679V113.641C153.679 113.026 153.923 112.437 154.357 112.003C154.792 111.568 155.381 111.324 155.996 111.324C156.61 111.324 157.199 111.568 157.634 112.003C158.068 112.437 158.312 113.026 158.312 113.641V114.413H166.034V109.78C166.034 108.551 165.546 107.372 164.677 106.504C163.808 105.635 162.63 105.146 161.401 105.146H159.857V102.058C159.857 100.624 159.287 99.2491 158.273 98.2354C157.26 97.2217 155.885 96.6522 154.451 96.6522H143.64C142.207 96.6522 140.832 97.2217 139.818 98.2354C138.804 99.2491 138.235 100.624 138.235 102.058V105.146ZM142.868 102.058C142.868 101.853 142.949 101.656 143.094 101.512C143.239 101.367 143.435 101.285 143.64 101.285H154.451C154.656 101.285 154.852 101.367 154.997 101.512C155.142 101.656 155.223 101.853 155.223 102.058V105.146H142.868V102.058ZM132.057 125.224V119.046H139.779V121.363C139.779 121.977 140.023 122.566 140.458 123.001C140.892 123.435 141.481 123.679 142.096 123.679C142.71 123.679 143.299 123.435 143.734 123.001C144.168 122.566 144.412 121.977 144.412 121.363V119.046H153.679V121.363C153.679 121.977 153.923 122.566 154.357 123.001C154.792 123.435 155.381 123.679 155.996 123.679C156.61 123.679 157.199 123.435 157.634 123.001C158.068 122.566 158.312 121.977 158.312 121.363V119.046H166.034V125.224C166.034 126.453 165.546 127.631 164.677 128.5C163.808 129.369 162.63 129.857 161.401 129.857H136.69C135.462 129.857 134.283 129.369 133.414 128.5C132.545 127.631 132.057 126.453 132.057 125.224Z" fill="white"/>
<path d="M265.911 248.287L333.093 248.379C331.66 228.053 321.507 212.141 299.552 212.111C277.596 212.08 267.434 227.965 265.911 248.287Z" fill="#3688BE"/>
<path d="M299.643 146.509L299.624 160.255" stroke="#D87860" stroke-width="18.1112" stroke-miterlimit="10"/>
<path d="M297.904 150.154C297.904 150.154 300.171 153.865 308.611 153.971L308.625 144.411" fill="#3A3144"/>
<path d="M312.492 127.04C312.501 119.953 306.764 114.201 299.678 114.191C292.591 114.181 286.838 119.918 286.829 127.005L286.814 137.854C286.804 144.941 292.541 150.694 299.628 150.704C306.714 150.713 312.467 144.976 312.477 137.89L312.492 127.04Z" fill="#D87860"/>
<path d="M315.192 135.312C316.309 133.111 315.996 130.709 314.494 129.947C312.991 129.185 310.869 130.351 309.752 132.552C308.636 134.753 308.949 137.154 310.451 137.916C311.953 138.678 314.076 137.512 315.192 135.312Z" fill="#D87860"/>
<path d="M288.825 137.965C290.329 137.207 290.649 134.807 289.538 132.603C288.428 130.399 286.308 129.227 284.804 129.985C283.3 130.743 282.981 133.144 284.091 135.348C285.201 137.551 287.321 138.723 288.825 137.965Z" fill="#D87860"/>
<path d="M293.737 135.514C294.294 135.515 294.746 135.064 294.747 134.508C294.747 133.951 294.297 133.499 293.74 133.498C293.183 133.497 292.731 133.948 292.731 134.505C292.73 135.062 293.181 135.514 293.737 135.514Z" fill="#3A3144"/>
<path d="M292.914 131.421C293.394 131.252 293.901 131.175 294.41 131.193C294.566 131.193 294.716 131.131 294.827 131.021C294.938 130.91 295 130.761 295 130.604C295 130.448 294.938 130.298 294.828 130.187C294.718 130.076 294.568 130.014 294.411 130.014C293.799 130.004 293.189 130.098 292.608 130.293C291.899 130.532 292.197 131.668 292.914 131.421Z" fill="#3A3144"/>
<path d="M305.569 135.531C306.126 135.531 306.578 135.081 306.579 134.524C306.58 133.967 306.129 133.515 305.572 133.515C305.015 133.514 304.563 133.965 304.563 134.521C304.562 135.078 305.013 135.53 305.569 135.531Z" fill="#3A3144"/>
<path d="M306.713 130.312C306.133 130.116 305.523 130.019 304.911 130.028C304.754 130.028 304.604 130.09 304.494 130.2C304.383 130.311 304.321 130.46 304.32 130.617C304.32 130.773 304.382 130.923 304.493 131.034C304.603 131.144 304.753 131.207 304.909 131.207C305.418 131.19 305.925 131.269 306.404 131.44C307.121 131.688 307.43 130.587 306.713 130.312Z" fill="#3A3144"/>
<path d="M299.168 137.461C299.222 137.377 299.298 137.31 299.389 137.267C299.479 137.224 299.579 137.207 299.678 137.218C299.778 137.229 299.872 137.267 299.951 137.328C300.03 137.389 300.09 137.471 300.125 137.565C300.457 138.206 301.432 137.644 301.099 136.994C300.956 136.739 300.749 136.525 300.5 136.373C300.25 136.221 299.965 136.135 299.673 136.124C299.38 136.114 299.09 136.178 298.83 136.312C298.57 136.445 298.348 136.644 298.186 136.887C297.784 137.493 298.766 138.067 299.168 137.461Z" fill="#3A3144"/>
<path d="M322.66 231.347L276.382 231.284C274.26 231.281 272.211 230.504 270.619 229.099C269.028 227.694 268.004 225.757 267.739 223.651L262.043 178.365C261.717 175.779 261.945 173.153 262.713 170.661C263.481 168.17 264.771 165.871 266.497 163.917C268.223 161.964 270.345 160.4 272.723 159.331C275.1 158.262 277.678 157.711 280.285 157.716L318.968 157.77C321.574 157.774 324.149 158.334 326.523 159.41C328.896 160.487 331.013 162.056 332.733 164.014C334.453 165.972 335.737 168.274 336.499 170.766C337.261 173.258 337.484 175.884 337.153 178.469L331.324 223.739C331.053 225.844 330.024 227.778 328.429 229.179C326.834 230.58 324.783 231.351 322.66 231.347Z" fill="#3A3144"/>
<path d="M300.735 165.621L302.788 163.667L299.623 160.34L296.449 163.659L298.489 165.618L293.72 210.12L299.549 214.101L305.381 210.136L300.735 165.621Z" fill="#3688BE"/>
<path d="M290.791 153.366L285.684 157.758L292.989 163.783L300.865 157.779L290.791 153.366Z" fill="#3A3144"/>
<path d="M308.466 153.39L313.56 157.796L306.239 163.8L298.379 157.775L308.466 153.39Z" fill="#3A3144"/>
<path d="M266.947 240.548C265.891 250.046 261.616 289.654 260.514 314.915C271.507 318.405 282.921 320.397 294.447 320.839C294.958 303.113 298.417 266.784 300.908 244.311L266.947 240.548Z" fill="#3688BE"/>
<path d="M332.07 240.629L298.097 244.299C300.527 266.787 303.885 303.134 304.348 320.853C315.878 320.443 327.3 318.482 338.306 315.022C337.273 289.759 333.099 250.139 332.07 240.629Z" fill="#3688BE"/>
<path d="M181.156 165.791L194.57 155.033C194.57 155.033 182.442 138.852 174.47 145.799C166.497 152.747 181.156 165.791 181.156 165.791Z" fill="#D87860"/>
<path d="M187.041 140.442L191.809 153.604C192.535 155.606 189.384 156.625 188.666 154.606L183.899 141.469C183.173 139.467 186.324 138.448 187.042 140.468L187.041 140.442Z" fill="#D87860"/>
<path d="M168.497 151.782C171.602 153.798 174.636 155.915 177.602 158.132C178.877 159.081 177.2 160.904 175.934 159.962C173.134 157.875 170.273 155.878 167.351 153.973C166.028 153.111 167.157 150.903 168.497 151.782Z" fill="#D87860"/>
<path d="M168.317 145.521C170.407 147.705 172.798 149.581 175.418 151.091C176.797 151.882 175.659 154.082 174.271 153.291C171.453 151.681 168.876 149.682 166.614 147.353C165.509 146.207 167.168 144.368 168.282 145.522L168.317 145.521Z" fill="#D87860"/>
<path d="M175.483 148.454C172.999 146.539 170.65 144.454 168.454 142.213C167.34 141.076 169.008 139.237 170.122 140.383C172.318 142.623 174.667 144.708 177.151 146.624C178.411 147.591 176.734 149.423 175.483 148.454Z" fill="#D87860"/>
<path d="M174.671 136.69C177.437 141 181.702 144.06 185.816 147.007C187.116 147.93 185.439 149.753 184.148 148.838C179.85 145.796 175.465 142.545 172.596 138.035C172.439 137.76 172.394 137.436 172.469 137.129C172.544 136.822 172.733 136.555 172.999 136.383C173.264 136.211 173.585 136.147 173.896 136.204C174.207 136.261 174.484 136.435 174.671 136.69Z" fill="#D87860"/>
<path d="M280.469 168.257C280.469 168.257 244.596 192.89 219.301 184.796C194.006 176.701 185.622 157.894 185.622 157.894" stroke="#3A3144" stroke-width="21.3575" stroke-miterlimit="10"/>
<path d="M328.549 168.144C328.549 168.144 293.531 219.245 287.3 221.182C281.069 223.119 245.089 199.265 245.089 199.265" stroke="#473C52" stroke-width="21.246" stroke-miterlimit="10"/>
<path d="M286.793 129.563C291.616 131.974 302.977 125.395 306.144 121.427C306.144 121.427 308.99 125.945 310.304 128.357C312.642 132.648 313.319 128.041 313.349 125.264C313.378 122.488 312.76 118.267 308.387 117.629C308.387 117.629 304.671 111.191 297.339 112.898C290.007 114.605 283.176 120.52 286.793 129.563Z" fill="#3688BE"/>
<path d="M274.768 244.138C276.976 242.604 279.022 240.849 280.875 238.901C281.397 238.355 280.569 237.525 280.022 238.046C278.245 239.926 276.279 241.618 274.154 243.095C273.547 243.522 274.152 244.539 274.742 244.113L274.768 244.138Z" fill="#3A3144"/>
<path d="M321.351 238.804L328.619 246.742C329.131 247.298 329.952 246.47 329.474 245.889L322.207 237.951C321.703 237.395 320.874 238.222 321.351 238.804Z" fill="#3A3144"/>
<path d="M298.59 141.322C300.285 141.639 302.038 141.293 303.486 140.354C304.11 139.945 303.531 138.928 302.898 139.337C301.723 140.121 300.291 140.425 298.899 140.186C298.164 140.057 297.846 141.184 298.59 141.313L298.59 141.322Z" fill="#3A3144"/>
<path d="M241.787 204.72L250.832 190.092C250.832 190.092 233.998 178.899 228.834 188.09C223.671 197.282 241.787 204.72 241.787 204.72Z" fill="#D87860"/>
<path d="M238.728 178.702L247.62 189.513C248.951 191.141 246.627 193.482 245.295 191.853L236.403 181.043C235.071 179.415 237.4 177.066 238.728 178.702Z" fill="#D87860"/>
<path d="M225.31 195.759C228.803 196.604 232.267 197.557 235.702 198.618C237.222 199.094 236.616 201.493 235.085 201.02C231.655 199.962 228.19 199.009 224.692 198.161C224.534 198.121 224.386 198.05 224.256 197.952C224.126 197.854 224.016 197.731 223.933 197.591C223.85 197.451 223.796 197.296 223.773 197.134C223.75 196.973 223.759 196.809 223.8 196.651C223.84 196.493 223.911 196.345 224.009 196.215C224.107 196.085 224.23 195.975 224.37 195.892C224.51 195.809 224.665 195.755 224.827 195.732C224.988 195.709 225.152 195.718 225.31 195.759Z" fill="#D87860"/>
<path d="M223.047 189.964C225.768 191.295 228.661 192.243 231.643 192.779C233.211 193.066 232.586 195.465 231.03 195.174C227.835 194.578 224.739 193.538 221.833 192.084C220.407 191.376 221.638 189.226 223.064 189.934L223.047 189.964Z" fill="#D87860"/>
<path d="M230.809 190.333C227.727 189.318 224.717 188.095 221.801 186.672C220.367 185.979 221.598 183.829 223.032 184.522C225.747 185.852 228.552 186.991 231.427 187.93C232.933 188.428 232.327 190.828 230.809 190.333Z" fill="#D87860"/>
<path d="M226.078 179.562C230.015 182.623 235.012 184.057 239.723 185.405C241.256 185.84 240.646 188.247 239.106 187.808C233.912 186.34 228.629 184.684 224.319 181.311C223.065 180.337 224.827 178.6 226.074 179.569L226.078 179.562Z" fill="#D87860"/>
</svg>
